# Blender 3.6.2
# www.blender.org
mtllib MaquinaCristal.mtl
o CristalPinball
v 50.227406 89.461739 39.428551
v 50.227406 89.461739 -38.488167
v -71.210846 52.603580 34.161907
v -71.210846 52.603580 -38.488174
v -75.474380 51.309532 33.138443
v -80.588516 49.757328 33.138443
v -75.474380 51.309532 5.645618
v -80.588516 49.757328 5.645618
v -71.210846 52.603580 39.428543
v -83.034492 49.014938 34.863628
v -73.028389 52.051926 34.863628
v -83.034492 49.014938 38.726822
v -73.028389 52.051926 38.726822
v 50.491268 88.592392 -38.488167
v 50.491268 88.592392 39.428551
v -70.946991 51.734234 -38.488174
v -70.946991 51.734234 34.161907
v -75.210526 50.440189 33.138443
v -80.324661 48.887981 33.138443
v -75.210526 50.440189 5.645618
v -80.324661 48.887981 5.645618
v -70.946991 51.734234 39.428543
v -72.764534 51.182583 34.863628
v -82.770638 48.145596 34.863628
v -72.764534 51.182583 38.726822
v -82.770638 48.145596 38.726822
vn 0.2904 -0.9569 -0.0000
vn -0.2904 0.9569 -0.0000
vn -0.0000 -0.0000 1.0000
vn 0.9569 0.2904 -0.0000
vn -0.9569 -0.2904 -0.0000
vn -0.0000 -0.0000 -1.0000
vt 0.000000 0.000000
s 0
usemtl Cristal
f 2/1/1 3/1/1 4/1/1
f 8/1/1 5/1/1 6/1/1
f 9/1/1 3/1/1 1/1/1
f 10/1/1 13/1/1 12/1/1
f 14/1/2 17/1/2 15/1/2
f 18/1/2 21/1/2 19/1/2
f 22/1/2 15/1/2 17/1/2
f 25/1/2 24/1/2 26/1/2
f 10/1/3 23/1/3 11/1/3
f 3/1/4 16/1/4 4/1/4
f 11/1/5 25/1/5 13/1/5
f 6/1/6 18/1/6 19/1/6
f 12/1/4 24/1/4 10/1/4
f 7/1/5 18/1/5 5/1/5
f 12/1/6 25/1/6 26/1/6
f 8/1/3 20/1/3 7/1/3
f 6/1/4 21/1/4 8/1/4
f 2/1/5 15/1/5 1/1/5
f 9/1/6 15/1/6 22/1/6
f 4/1/3 14/1/3 2/1/3
f 9/1/4 17/1/4 3/1/4
f 2/1/1 1/1/1 3/1/1
f 8/1/1 7/1/1 5/1/1
f 10/1/1 11/1/1 13/1/1
f 14/1/2 16/1/2 17/1/2
f 18/1/2 20/1/2 21/1/2
f 25/1/2 23/1/2 24/1/2
f 10/1/3 24/1/3 23/1/3
f 3/1/4 17/1/4 16/1/4
f 11/1/5 23/1/5 25/1/5
f 6/1/6 5/1/6 18/1/6
f 12/1/4 26/1/4 24/1/4
f 7/1/5 20/1/5 18/1/5
f 12/1/6 13/1/6 25/1/6
f 8/1/3 21/1/3 20/1/3
f 6/1/4 19/1/4 21/1/4
f 2/1/5 14/1/5 15/1/5
f 9/1/6 1/1/6 15/1/6
f 4/1/3 16/1/3 14/1/3
f 9/1/4 22/1/4 17/1/4
