# Blender 3.6.4
# www.blender.org
mtllib Pico_P.mtl
o Cono.011
v -0.066235 -0.009071 0.229071
v -0.107938 -0.008453 0.213216
v -0.145657 -0.007845 0.188977
v -0.177942 -0.007268 0.157286
v -0.203553 -0.006746 0.119360
v -0.221505 -0.006299 0.076658
v -0.231109 -0.005944 0.030819
v -0.231994 -0.005695 -0.016395
v -0.224129 -0.005561 -0.063169
v -0.207814 -0.005546 -0.107705
v -0.183676 -0.005653 -0.148292
v -0.152644 -0.005877 -0.183371
v -0.115910 -0.006208 -0.211593
v -0.074885 -0.006635 -0.231874
v -0.031145 -0.007141 -0.243434
v 0.013626 -0.007707 -0.245829
v 0.057711 -0.008310 -0.238968
v 0.099414 -0.008928 -0.223113
v 0.137133 -0.009537 -0.198874
v 0.169419 -0.010114 -0.167183
v 0.195029 -0.010636 -0.129257
v 0.212981 -0.011082 -0.086554
v 0.222585 -0.011438 -0.040715
v 0.223471 -0.011687 0.006498
v 0.215605 -0.011821 0.053272
v 0.199290 -0.011835 0.097808
v 0.175153 -0.011729 0.138395
v 0.144120 -0.011505 0.173474
v 0.107386 -0.011174 0.201696
v 0.066361 -0.010746 0.221977
v 0.022622 -0.010241 0.233537
v -0.022150 -0.009675 0.235933
v 0.008548 0.984117 0.000059
vn -0.3423 0.2355 0.9096
vn -0.5225 0.2372 0.8190
vn -0.6782 0.2379 0.6953
vn -0.8035 0.2377 0.5458
vn -0.8947 0.2371 0.3786
vn -0.9506 0.2364 0.2010
vn -0.9716 0.2358 0.0195
vn -0.9585 0.2356 -0.1605
vn -0.9125 0.2359 -0.3342
vn -0.8348 0.2366 -0.4971
vn -0.7268 0.2377 -0.6444
vn -0.5902 0.2390 -0.7711
vn -0.4282 0.2400 -0.8712
vn -0.2454 0.2405 -0.9391
vn -0.0488 0.2401 -0.9695
vn 0.1525 0.2386 -0.9591
vn 0.3484 0.2358 -0.9072
vn 0.5285 0.2319 -0.8166
vn 0.6842 0.2273 -0.6929
vn 0.8094 0.2224 -0.5435
vn 0.9005 0.2177 -0.3763
vn 0.9565 0.2138 -0.1987
vn 0.9774 0.2108 -0.0172
vn 0.9642 0.2092 0.1627
vn 0.9182 0.2089 0.3365
vn 0.8406 0.2100 0.4993
vn 0.7326 0.2124 0.6467
vn 0.5961 0.2159 0.7734
vn 0.4341 0.2201 0.8735
vn 0.2514 0.2246 0.9415
vn -0.0129 -0.9999 -0.0050
vn 0.0549 0.2290 0.9719
vn -0.1465 0.2327 0.9615
vt 0.250000 0.490000
vt 0.250000 0.250000
vt 0.296821 0.485388
vt 0.341844 0.471731
vt 0.383337 0.449553
vt 0.419705 0.419706
vt 0.449553 0.383337
vt 0.471731 0.341844
vt 0.485388 0.296822
vt 0.490000 0.250000
vt 0.485388 0.203178
vt 0.471731 0.158156
vt 0.449553 0.116663
vt 0.419705 0.080294
vt 0.383337 0.050447
vt 0.341844 0.028269
vt 0.296821 0.014612
vt 0.250000 0.010000
vt 0.203178 0.014612
vt 0.158156 0.028269
vt 0.116663 0.050447
vt 0.080294 0.080294
vt 0.050447 0.116663
vt 0.028269 0.158156
vt 0.014612 0.203178
vt 0.010000 0.250000
vt 0.014612 0.296822
vt 0.028269 0.341844
vt 0.050447 0.383337
vt 0.080294 0.419706
vt 0.116663 0.449553
vt 0.158156 0.471731
vt 0.750000 0.490000
vt 0.796821 0.485388
vt 0.841844 0.471731
vt 0.883337 0.449553
vt 0.919705 0.419706
vt 0.949553 0.383337
vt 0.971731 0.341844
vt 0.985388 0.296822
vt 0.990000 0.250000
vt 0.985388 0.203178
vt 0.971731 0.158156
vt 0.949553 0.116663
vt 0.919705 0.080294
vt 0.883337 0.050447
vt 0.841844 0.028269
vt 0.796821 0.014612
vt 0.750000 0.010000
vt 0.703178 0.014612
vt 0.658156 0.028269
vt 0.616663 0.050447
vt 0.580294 0.080294
vt 0.550447 0.116663
vt 0.528269 0.158156
vt 0.514611 0.203178
vt 0.510000 0.250000
vt 0.514611 0.296822
vt 0.528269 0.341844
vt 0.550447 0.383337
vt 0.580294 0.419706
vt 0.616663 0.449553
vt 0.658156 0.471731
vt 0.703178 0.485388
vt 0.203178 0.485388
s 0
usemtl Material.004
f 1/1/1 33/2/1 2/3/1
f 2/3/2 33/2/2 3/4/2
f 3/4/3 33/2/3 4/5/3
f 4/5/4 33/2/4 5/6/4
f 5/6/5 33/2/5 6/7/5
f 6/7/6 33/2/6 7/8/6
f 7/8/7 33/2/7 8/9/7
f 8/9/8 33/2/8 9/10/8
f 9/10/9 33/2/9 10/11/9
f 10/11/10 33/2/10 11/12/10
f 11/12/11 33/2/11 12/13/11
f 12/13/12 33/2/12 13/14/12
f 13/14/13 33/2/13 14/15/13
f 14/15/14 33/2/14 15/16/14
f 15/16/15 33/2/15 16/17/15
f 16/17/16 33/2/16 17/18/16
f 17/18/17 33/2/17 18/19/17
f 18/19/18 33/2/18 19/20/18
f 19/20/19 33/2/19 20/21/19
f 20/21/20 33/2/20 21/22/20
f 21/22/21 33/2/21 22/23/21
f 22/23/22 33/2/22 23/24/22
f 23/24/23 33/2/23 24/25/23
f 24/25/24 33/2/24 25/26/24
f 25/26/25 33/2/25 26/27/25
f 26/27/26 33/2/26 27/28/26
f 27/28/27 33/2/27 28/29/27
f 28/29/28 33/2/28 29/30/28
f 29/30/29 33/2/29 30/31/29
f 30/31/30 33/2/30 31/32/30
f 1/33/31 2/34/31 3/35/31 4/36/31 5/37/31 6/38/31 7/39/31 8/40/31 9/41/31 10/42/31 11/43/31 12/44/31 13/45/31 14/46/31 15/47/31 16/48/31 17/49/31 18/50/31 19/51/31 20/52/31 21/53/31 22/54/31 23/55/31 24/56/31 25/57/31 26/58/31 27/59/31 28/60/31 29/61/31 30/62/31 31/63/31 32/64/31
f 31/32/32 33/2/32 32/65/32
f 32/65/33 33/2/33 1/1/33
