# Blender 3.6.4
# www.blender.org
mtllib Pico_G.mtl
o Cono.013
v -0.044120 0.000000 -1.993549
v 0.345603 0.000000 -1.955385
v 0.720350 0.000000 -1.842360
v 1.065718 0.000000 -1.658818
v 1.368436 0.000000 -1.411812
v 1.616870 0.000000 -1.110834
v 1.801473 0.000000 -0.767450
v 1.915152 0.000000 -0.394857
v 1.953536 0.000000 -0.007373
v 1.915152 0.000000 0.380110
v 1.801473 0.000000 0.752703
v 1.616870 0.000000 1.096087
v 1.368436 0.000000 1.397065
v 1.065718 0.000000 1.644071
v 0.720350 0.000000 1.827614
v 0.345603 0.000000 1.940639
v -0.044120 0.000000 1.978802
v -0.433844 0.000000 1.940639
v -0.808590 0.000000 1.827614
v -1.153959 0.000000 1.644071
v -1.456676 0.000000 1.397065
v -1.705111 0.000000 1.096087
v -1.889714 0.000000 0.752703
v -2.003392 0.000000 0.380110
v -2.041777 0.000000 -0.007373
v -2.003392 0.000000 -0.394857
v -1.889714 0.000000 -0.767450
v -1.705111 0.000000 -1.110834
v -1.456676 0.000000 -1.411812
v -1.153959 0.000000 -1.658818
v -0.808590 0.000000 -1.842360
v -0.433844 0.000000 -1.955385
v -0.044120 7.858685 -0.007373
vn 0.0945 0.2439 -0.9652
vn 0.2800 0.2440 -0.9285
vn 0.4551 0.2442 -0.8563
vn 0.6130 0.2445 -0.7513
vn 0.7478 0.2447 -0.6172
vn 0.8540 0.2450 -0.4591
vn 0.9273 0.2451 -0.2829
vn 0.9647 0.2452 -0.0956
vn 0.9647 0.2452 0.0956
vn 0.9273 0.2451 0.2829
vn 0.8540 0.2450 0.4591
vn 0.7478 0.2447 0.6172
vn 0.6130 0.2445 0.7513
vn 0.4551 0.2442 0.8563
vn 0.2800 0.2440 0.9285
vn 0.0945 0.2439 0.9652
vn -0.0945 0.2439 0.9652
vn -0.2800 0.2440 0.9285
vn -0.4551 0.2442 0.8563
vn -0.6130 0.2445 0.7513
vn -0.7478 0.2447 0.6172
vn -0.8540 0.2450 0.4591
vn -0.9273 0.2451 0.2829
vn -0.9647 0.2452 0.0956
vn -0.9647 0.2452 -0.0956
vn -0.9273 0.2451 -0.2829
vn -0.8540 0.2450 -0.4591
vn -0.7478 0.2447 -0.6172
vn -0.6130 0.2445 -0.7513
vn -0.4551 0.2442 -0.8563
vn -0.0000 -1.0000 -0.0000
vn -0.2800 0.2440 -0.9285
vn -0.0945 0.2439 -0.9652
vt 0.180117 0.891422
vt 0.501000 0.508382
vt 0.261010 0.946663
vt 0.351125 0.985061
vt 0.447001 1.005141
vt 0.544951 1.006131
vt 0.641212 0.987992
vt 0.732086 0.951422
vt 0.814078 0.897827
vt 0.884040 0.829265
vt 0.939281 0.748372
vt 0.977679 0.658257
vt 0.997759 0.562381
vt 0.998748 0.464431
vt 0.980610 0.368169
vt 0.944040 0.277296
vt 0.890445 0.195304
vt 0.821883 0.125343
vt 0.740990 0.070101
vt 0.650874 0.031703
vt 0.554999 0.011623
vt 0.457049 0.010634
vt 0.360787 0.028772
vt 0.269914 0.065342
vt 0.187922 0.118938
vt 0.117960 0.187499
vt 0.062719 0.268392
vt 0.024321 0.358508
vt 0.004241 0.454383
vt 0.003251 0.552333
vt 0.021390 0.648595
vt 0.057960 0.739468
vt 0.703678 0.654192
vt 0.742531 0.680724
vt 0.785814 0.699167
vt 0.831863 0.708811
vt 0.878909 0.709287
vt 0.925144 0.700575
vt 0.968790 0.683010
vt 1.008172 0.657268
vt 1.041774 0.624338
vt 1.068307 0.585485
vt 1.086749 0.542202
vt 1.096394 0.496153
vt 1.096869 0.449107
vt 1.088157 0.402872
vt 1.070593 0.359226
vt 1.044851 0.319844
vt 1.011920 0.286242
vt 0.973067 0.259709
vt 0.929784 0.241267
vt 0.883735 0.231622
vt 0.836689 0.231147
vt 0.790455 0.239859
vt 0.746808 0.257424
vt 0.707427 0.283166
vt 0.673824 0.316096
vt 0.647292 0.354949
vt 0.628849 0.398232
vt 0.619205 0.444281
vt 0.618729 0.491327
vt 0.627442 0.537561
vt 0.645006 0.581208
vt 0.670748 0.620589
vt 0.111555 0.821461
s 0
usemtl Material.004
f 1/1/1 33/2/1 2/3/1
f 2/3/2 33/2/2 3/4/2
f 3/4/3 33/2/3 4/5/3
f 4/5/4 33/2/4 5/6/4
f 5/6/5 33/2/5 6/7/5
f 6/7/6 33/2/6 7/8/6
f 7/8/7 33/2/7 8/9/7
f 8/9/8 33/2/8 9/10/8
f 9/10/9 33/2/9 10/11/9
f 10/11/10 33/2/10 11/12/10
f 11/12/11 33/2/11 12/13/11
f 12/13/12 33/2/12 13/14/12
f 13/14/13 33/2/13 14/15/13
f 14/15/14 33/2/14 15/16/14
f 15/16/15 33/2/15 16/17/15
f 16/17/16 33/2/16 17/18/16
f 17/18/17 33/2/17 18/19/17
f 18/19/18 33/2/18 19/20/18
f 19/20/19 33/2/19 20/21/19
f 20/21/20 33/2/20 21/22/20
f 21/22/21 33/2/21 22/23/21
f 22/23/22 33/2/22 23/24/22
f 23/24/23 33/2/23 24/25/23
f 24/25/24 33/2/24 25/26/24
f 25/26/25 33/2/25 26/27/25
f 26/27/26 33/2/26 27/28/26
f 27/28/27 33/2/27 28/29/27
f 28/29/28 33/2/28 29/30/28
f 29/30/29 33/2/29 30/31/29
f 30/31/30 33/2/30 31/32/30
f 1/33/31 2/34/31 3/35/31 4/36/31 5/37/31 6/38/31 7/39/31 8/40/31 9/41/31 10/42/31 11/43/31 12/44/31 13/45/31 14/46/31 15/47/31 16/48/31 17/49/31 18/50/31 19/51/31 20/52/31 21/53/31 22/54/31 23/55/31 24/56/31 25/57/31 26/58/31 27/59/31 28/60/31 29/61/31 30/62/31 31/63/31 32/64/31
f 31/32/32 33/2/32 32/65/32
f 32/65/33 33/2/33 1/1/33
