# Blender 3.6.2
# www.blender.org
mtllib Base.mtl
o BaseInferior
v 0.971547 -0.038317 3.095542
v 0.971547 0.369191 2.771293
v 0.971547 -0.038317 0.274588
v 0.971547 0.369191 0.587460
v 1.363814 -0.038317 3.095542
v 1.363814 0.369191 2.771293
v 1.363814 -0.038317 0.274588
v 1.363814 0.369191 0.587460
v 0.971547 -0.011409 2.908898
v 0.971547 0.342283 2.627469
v 0.971547 -0.011409 0.460481
v 0.971547 0.342283 0.732035
v 0.875530 -0.011409 2.908898
v 0.875530 0.342283 2.627469
v 0.875530 -0.011409 0.460481
v 0.875530 0.342283 0.732035
v 0.875530 -0.040770 3.112558
v 0.875530 0.371644 2.784405
v 0.875530 -0.040770 0.257641
v 0.875530 0.371644 0.574279
v 0.510667 -0.040770 3.112558
v 0.510667 0.371644 2.784405
v 0.510667 -0.040770 0.257641
v 0.510667 0.371644 0.574279
v 0.616481 0.364983 2.439736
v 0.867921 0.926882 2.188297
v 0.616481 0.364983 1.465817
v 0.867921 0.926882 1.717257
v 1.266535 0.364983 2.439736
v 1.015095 0.926882 2.188297
v 1.266535 0.364983 1.465817
v 1.015095 0.926882 1.717257
v 0.971547 -0.038317 -1.044796
v 0.971547 0.369191 -1.369045
v 0.971547 -0.038317 -3.865750
v 0.971547 0.369191 -3.552878
v 1.363814 -0.038317 -1.044796
v 1.363814 0.369191 -1.369045
v 1.363814 -0.038317 -3.865750
v 1.363814 0.369191 -3.552878
v 0.971547 -0.011409 -1.231441
v 0.971547 0.342283 -1.512869
v 0.971547 -0.011409 -3.679857
v 0.971547 0.342283 -3.408303
v 0.875530 -0.011409 -1.231441
v 0.875530 0.342283 -1.512869
v 0.875530 -0.011409 -3.679857
v 0.875530 0.342283 -3.408303
v 0.875530 -0.040770 -1.027781
v 0.875530 0.371644 -1.355933
v 0.875530 -0.040770 -3.882697
v 0.875530 0.371644 -3.566059
v 0.510667 -0.040770 -1.027781
v 0.510667 0.371644 -1.355933
v 0.510667 -0.040770 -3.882697
v 0.510667 0.371644 -3.566059
v 0.616481 0.364983 -1.700602
v 0.867921 0.926882 -1.952041
v 0.616481 0.364983 -2.674521
v 0.867921 0.926882 -2.423081
v 1.266535 0.364983 -1.700602
v 1.015095 0.926882 -1.952041
v 1.266535 0.364983 -2.674521
v 1.015095 0.926882 -2.423081
v -0.877240 -0.038317 -1.044796
v -0.877240 0.369191 -1.369045
v -0.877240 -0.038317 -3.865750
v -0.877240 0.369191 -3.552878
v -0.484973 -0.038317 -1.044796
v -0.484973 0.369191 -1.369045
v -0.484973 -0.038317 -3.865750
v -0.484973 0.369191 -3.552878
v -0.877240 -0.011409 -1.231441
v -0.877240 0.342283 -1.512869
v -0.877240 -0.011409 -3.679857
v -0.877240 0.342283 -3.408303
v -0.973257 -0.011409 -1.231441
v -0.973257 0.342283 -1.512869
v -0.973257 -0.011409 -3.679857
v -0.973257 0.342283 -3.408303
v -0.973257 -0.040770 -1.027781
v -0.973257 0.371644 -1.355933
v -0.973257 -0.040770 -3.882697
v -0.973257 0.371644 -3.566059
v -1.338120 -0.040770 -1.027781
v -1.338120 0.371644 -1.355933
v -1.338120 -0.040770 -3.882697
v -1.338120 0.371644 -3.566059
v -1.232306 0.364983 -1.700602
v -0.980866 0.926882 -1.952041
v -1.232306 0.364983 -2.674521
v -0.980866 0.926882 -2.423081
v -0.582252 0.364983 -1.700602
v -0.833692 0.926882 -1.952041
v -0.582252 0.364983 -2.674521
v -0.833692 0.926882 -2.423081
v -0.877240 -0.038317 3.095541
v -0.877240 0.369191 2.771293
v -0.877240 -0.038317 0.274588
v -0.877240 0.369191 0.587460
v -0.484973 -0.038317 3.095541
v -0.484973 0.369191 2.771293
v -0.484973 -0.038317 0.274588
v -0.484973 0.369191 0.587460
v -0.877240 -0.011409 2.908897
v -0.877240 0.342283 2.627469
v -0.877240 -0.011409 0.460481
v -0.877240 0.342283 0.732034
v -0.973257 -0.011409 2.908897
v -0.973257 0.342283 2.627469
v -0.973257 -0.011409 0.460481
v -0.973257 0.342283 0.732034
v -0.973257 -0.040770 3.112557
v -0.973257 0.371644 2.784405
v -0.973257 -0.040770 0.257641
v -0.973257 0.371644 0.574279
v -1.338120 -0.040770 3.112557
v -1.338120 0.371644 2.784405
v -1.338120 -0.040770 0.257641
v -1.338120 0.371644 0.574279
v -1.232306 0.364983 2.439736
v -0.980866 0.926882 2.188297
v -1.232306 0.364983 1.465817
v -0.980866 0.926882 1.717257
v -0.582252 0.364983 2.439736
v -0.833692 0.926882 2.188297
v -0.582252 0.364983 1.465817
v -0.833692 0.926882 1.717257
v 0.000000 1.467591 -2.726128
v -0.531841 1.467591 -2.673746
v -1.043244 1.467591 -2.518613
v -1.514555 1.467591 -2.266692
v -1.927663 1.467591 -1.927663
v -2.266692 1.467591 -1.514555
v -2.518613 1.467591 -1.043244
v -2.673746 1.467591 -0.531841
v -2.726127 1.467591 0.000000
v -2.673746 1.467591 0.531841
v -2.518613 1.467591 1.043244
v -2.266692 1.467591 1.514555
v -1.927663 1.467591 1.927663
v -1.514555 1.467591 2.266692
v -1.043244 1.467591 2.518613
v -0.531841 1.467591 2.673746
v 0.000000 1.467591 2.726128
v 0.531841 1.467591 2.673746
v 1.043244 1.467591 2.518613
v 1.514555 1.467591 2.266692
v 1.927663 1.467591 1.927663
v 2.266692 1.467591 1.514555
v 2.518613 1.467591 1.043244
v 2.673746 1.467591 0.531841
v 2.726127 1.467591 0.000000
v 2.673746 1.467591 -0.531841
v 2.518613 1.467591 -1.043244
v 2.266692 1.467591 -1.514555
v 1.927663 1.467591 -1.927663
v 1.514555 1.467591 -2.266692
v 1.043244 1.467591 -2.518613
v 0.531841 1.467591 -2.673746
v 0.000000 0.954969 -2.726128
v -0.531841 0.954969 -2.673746
v -1.043244 0.954969 -2.518613
v -1.514555 0.954969 -2.266692
v -1.927663 0.954969 -1.927663
v -2.266692 0.954969 -1.514555
v -2.518613 0.954969 -1.043244
v -2.673746 0.954969 -0.531841
v -2.726127 0.954969 0.000000
v -2.673746 0.954969 0.531841
v -2.518613 0.954969 1.043244
v -2.266692 0.954969 1.514555
v -1.927663 0.954969 1.927663
v -1.514555 0.954969 2.266692
v -1.043244 0.954969 2.518613
v -0.531841 0.954969 2.673746
v 0.000000 0.954969 2.726128
v 0.531841 0.954969 2.673746
v 1.043244 0.954969 2.518613
v 1.514555 0.954969 2.266692
v 1.927663 0.954969 1.927663
v 2.266692 0.954969 1.514555
v 2.518613 0.954969 1.043244
v 2.673746 0.954969 0.531841
v 2.726127 0.954969 0.000000
v 2.673746 0.954969 -0.531841
v 2.518613 0.954969 -1.043244
v 2.266692 0.954969 -1.514555
v 1.927663 0.954969 -1.927663
v 1.514555 0.954969 -2.266692
v 1.043244 0.954969 -2.518613
v 0.531841 0.954969 -2.673746
vn -1.0000 -0.0000 -0.0000
vn -0.0000 0.6090 -0.7932
vn 1.0000 -0.0000 -0.0000
vn -0.0000 0.6226 0.7825
vn -0.0000 -1.0000 -0.0000
vn -0.0000 1.0000 -0.0000
vn -0.9128 0.4085 -0.0000
vn -0.0000 0.4085 -0.9128
vn 0.9128 0.4085 -0.0000
vn -0.0000 0.4085 0.9128
vn -0.9952 -0.0000 0.0980
vn 0.7730 -0.0000 -0.6344
vn -0.9569 -0.0000 0.2903
vn 0.6344 -0.0000 -0.7730
vn -0.8819 -0.0000 0.4714
vn 0.4714 -0.0000 -0.8819
vn 0.0980 -0.0000 0.9952
vn -0.7730 -0.0000 0.6344
vn 0.2903 -0.0000 -0.9569
vn 0.2903 -0.0000 0.9569
vn -0.6344 -0.0000 0.7730
vn 0.0980 -0.0000 -0.9952
vn 0.4714 -0.0000 0.8819
vn -0.4714 -0.0000 0.8819
vn -0.0980 -0.0000 -0.9952
vn 0.6344 -0.0000 0.7730
vn -0.2903 -0.0000 0.9569
vn -0.2903 -0.0000 -0.9569
vn 0.7730 -0.0000 0.6344
vn -0.0980 -0.0000 0.9952
vn -0.4714 -0.0000 -0.8819
vn 0.8819 -0.0000 0.4714
vn -0.6344 -0.0000 -0.7730
vn 0.9569 -0.0000 0.2903
vn -0.7730 -0.0000 -0.6344
vn 0.9952 -0.0000 0.0980
vn -0.8819 -0.0000 -0.4714
vn 0.9952 -0.0000 -0.0980
vn -0.9569 -0.0000 -0.2903
vn 0.9569 -0.0000 -0.2903
vn -0.9952 -0.0000 -0.0980
vn 0.8819 -0.0000 -0.4714
vt 0.250141 0.518831
vt 0.588958 0.565235
vt 0.250717 0.516163
vt 0.589379 0.575370
vt 0.564952 0.478098
vt 0.593335 0.486670
vt 0.289683 0.510259
vt 0.277990 0.405064
vt 0.245839 0.413636
vt 0.553222 0.566798
vt 0.592985 0.488249
vt 0.599649 0.567333
vt 0.246259 0.424860
vt 0.236876 0.426958
vt 0.239965 0.521172
vt 0.237826 0.414711
vt 0.238777 0.518261
vt 0.945377 0.424860
vt 0.601148 0.490347
vt 0.598674 0.578392
vt 0.902703 0.529145
vt 0.939083 0.521172
vt 0.937895 0.518261
vt 0.935994 0.426958
vt 0.600417 0.488624
vt 0.626414 0.496597
vt 0.907977 0.422684
vt 0.936945 0.414711
vt 0.632462 0.586365
vt 0.208858 0.422684
vt 0.244350 0.668664
vt -0.008674 0.559389
vt 0.199711 0.534174
vt 0.240569 0.680859
vt 0.492761 0.545184
vt 0.690445 0.559389
vt 0.384511 0.677643
vt 0.295363 0.519969
vt 0.275204 0.665448
vt 0.077446 0.523047
vt 0.478633 0.415359
vt 0.078118 0.508480
vt 0.479146 0.415757
vt 0.447583 0.276476
vt 0.483761 0.286790
vt 0.125288 0.512733
vt 0.107846 0.415067
vt 0.071949 0.425382
vt 0.436481 0.405442
vt 0.483315 0.303424
vt 0.491152 0.417883
vt 0.072409 0.423713
vt 0.061909 0.426237
vt 0.064935 0.526900
vt 0.062948 0.428059
vt 0.063499 0.511005
vt 0.900677 0.423713
vt 0.493691 0.305948
vt 0.489986 0.418318
vt 0.848158 0.536493
vt 0.893204 0.526900
vt 0.891767 0.511005
vt 0.890178 0.426237
vt 0.492738 0.287798
vt 0.525273 0.297392
vt 0.858277 0.437652
vt 0.891217 0.428059
vt 0.529060 0.427911
vt 0.030008 0.437652
vt 0.898939 0.652589
vt 0.590984 0.467073
vt 0.842805 0.514921
vt 0.485201 0.629447
vt 0.368278 0.449980
vt 0.375891 0.625577
vt 0.132662 0.497828
vt 0.954127 0.648719
vt 0.960930 0.497828
vt 0.125858 0.648719
vt 0.022528 0.581384
vt 0.336275 0.502637
vt 0.023184 0.570369
vt 0.336795 0.503346
vt 0.309864 0.402337
vt 0.337744 0.403187
vt 0.060185 0.580534
vt 0.049063 0.503142
vt 0.704870 0.580534
vt 0.665714 0.503992
vt 0.693748 0.503142
vt 0.954549 0.402337
vt 0.982430 0.403187
vt 0.303578 0.502496
vt 0.337309 0.415705
vt 0.346051 0.502845
vt 0.666180 0.503198
vt 0.981995 0.415705
vt 0.667214 0.581384
vt 0.657965 0.503406
vt 0.657453 0.582596
vt 0.658665 0.504273
vt 0.667870 0.570369
vt 0.656476 0.570577
vt 0.345394 0.415913
vt 0.345270 0.503619
vt 0.622688 0.583387
vt 0.344746 0.402254
vt 0.370356 0.403045
vt 0.632877 0.505063
vt 0.375859 0.504409
vt 0.645974 0.682546
vt 0.425577 0.534584
vt 0.618313 0.569387
vt 0.277293 0.665395
vt 0.251529 0.533176
vt 0.065717 0.567978
vt 0.690113 0.682227
vt 0.710403 0.567978
vt 0.382458 0.665714
vt 0.578468 0.484145
vt 0.946592 0.477167
vt 0.579246 0.477167
vt 0.191518 0.484145
vt 0.161230 0.378454
vt 0.192435 0.378454
vt 0.916920 0.378454
vt 0.621528 0.484145
vt 0.610893 0.378454
vt 0.577319 0.378454
vt 0.948125 0.378454
vt 0.947208 0.484145
vt 0.908246 0.484145
vt 0.191944 0.385433
vt 0.202348 0.477167
vt 0.190902 0.477167
vt 0.577902 0.385433
vt 0.947634 0.385433
vt 0.568027 0.385433
vt 0.567356 0.484782
vt 0.568862 0.377817
vt 0.566244 0.477167
vt 0.200964 0.385433
vt 0.201465 0.484782
vt 0.527702 0.484782
vt 0.200260 0.377818
vt 0.228994 0.377818
vt 0.537970 0.377817
vt 0.237371 0.484782
vt 0.557019 0.628789
vt 0.298335 0.483054
vt 0.522940 0.483054
vt 0.038680 0.628789
vt 0.089218 0.483054
vt 0.794370 0.628789
vt 0.627546 0.483054
vt 0.844908 0.483054
vt 0.596149 0.628789
vt 0.342372 0.628789
vt 0.444188 0.090634
vt 0.409366 0.444188
vt 0.055812 0.409366
vt 0.490393 0.677078
vt 0.322922 0.990393
vt 0.009607 0.822922
vt 0.634743 0.094475
vt 0.683989 0.047238
vt 0.683989 0.094475
vt 0.500000 0.141713
vt 0.540946 0.094475
vt 0.540946 0.141713
vt 0.586443 0.094475
vt 0.634743 0.047238
vt 0.812607 0.047238
vt 0.853553 -0.000000
vt 0.853553 0.047238
vt 0.540946 0.094475
vt 0.586443 0.047238
vt 0.767110 0.047238
vt 0.812607 0.000000
vt 0.634743 0.188950
vt 0.683989 0.141713
vt 0.683989 0.188950
vt 0.500000 0.094475
vt 0.540946 0.047238
vt 0.718811 0.047238
vt 0.767110 0.000000
vt 0.586443 0.188950
vt 0.634743 0.141713
vt 0.818731 0.188950
vt 0.853553 0.141713
vt 0.853553 0.188950
vt 0.669565 0.047238
vt 0.718811 0.000000
vt 0.540946 0.188950
vt 0.586443 0.141713
vt 0.777785 0.188950
vt 0.818731 0.141713
vt 0.621265 0.047238
vt 0.669565 0.000000
vt 0.500000 0.188950
vt 0.540946 0.141713
vt 0.732288 0.188950
vt 0.777785 0.141713
vt 0.575768 0.047238
vt 0.621265 0.000000
vt 0.818731 0.141713
vt 0.853553 0.094475
vt 0.853553 0.141713
vt 0.732288 0.141713
vt 0.534822 0.047238
vt 0.575768 0.000000
vt 0.777785 0.141713
vt 0.818731 0.094475
vt 0.500000 0.047238
vt 0.534822 0.000000
vt 0.732288 0.141713
vt 0.777785 0.094475
vt 0.818731 0.094475
vt 0.853553 0.047238
vt 0.853553 0.094475
vt 0.683989 0.141713
vt 0.732288 0.094475
vt 0.777785 0.094475
vt 0.818731 0.047238
vt 0.634743 0.141713
vt 0.683989 0.094475
vt 0.732288 0.094475
vt 0.777785 0.047238
vt 0.586443 0.141713
vt 0.634743 0.094475
vt 0.732288 0.047238
vt 0.586443 0.094475
vt 0.203585 0.529145
vt 0.019889 0.536493
vt 0.070670 0.652589
vt 0.045427 0.682227
vt 0.152556 0.484145
vt 0.028453 0.368419
vt 0.009607 0.322922
vt 0.000000 0.274623
vt 0.000000 0.225377
vt 0.009607 0.177078
vt 0.028453 0.131581
vt 0.055812 0.090634
vt 0.090634 0.055812
vt 0.131581 0.028453
vt 0.177078 0.009607
vt 0.225377 -0.000000
vt 0.274623 -0.000000
vt 0.322922 0.009607
vt 0.368419 0.028453
vt 0.409366 0.055812
vt 0.471547 0.131581
vt 0.490393 0.177078
vt 0.500000 0.225377
vt 0.500000 0.274623
vt 0.490393 0.322922
vt 0.471547 0.368419
vt 0.444188 0.409366
vt 0.368419 0.471547
vt 0.322922 0.490393
vt 0.274623 0.500000
vt 0.225377 0.500000
vt 0.177078 0.490393
vt 0.131581 0.471547
vt 0.090634 0.444188
vt 0.000000 0.774623
vt -0.000000 0.725377
vt 0.009607 0.677078
vt 0.028453 0.631580
vt 0.055812 0.590634
vt 0.090634 0.555812
vt 0.131581 0.528453
vt 0.177078 0.509607
vt 0.225377 0.500000
vt 0.274623 0.500000
vt 0.322922 0.509607
vt 0.368419 0.528453
vt 0.409366 0.555812
vt 0.444188 0.590634
vt 0.471547 0.631580
vt 0.500000 0.725377
vt 0.500000 0.774623
vt 0.490393 0.822922
vt 0.471547 0.868419
vt 0.444188 0.909366
vt 0.409366 0.944188
vt 0.368419 0.971547
vt 0.274623 1.000000
vt 0.225377 1.000000
vt 0.177078 0.990393
vt 0.131581 0.971547
vt 0.090634 0.944188
vt 0.055812 0.909366
vt 0.028453 0.868419
vt 0.500000 0.094475
vt 0.500000 0.047238
vt 0.500000 0.141713
vt 0.500000 0.000000
s 0
usemtl Rust
f 2/1/1 12/2/1 10/3/1
f 4/4/2 7/5/2 3/6/2
f 7/5/3 6/7/3 5/8/3
f 6/7/4 1/9/4 5/8/4
f 7/5/5 1/9/5 3/6/5
f 4/4/6 6/7/6 8/10/6
f 11/11/2 16/12/2 12/2/2
f 3/6/1 9/13/1 11/11/1
f 4/4/1 11/11/1 12/2/1
f 2/1/1 9/13/1 1/9/1
f 13/14/3 18/15/3 17/16/3
f 10/3/4 13/14/4 9/13/4
f 12/2/6 14/17/6 10/3/6
f 9/18/5 15/19/5 11/11/5
f 20/20/6 22/21/6 18/22/6
f 16/12/3 18/22/3 14/23/3
f 13/24/3 19/25/3 15/19/3
f 15/19/3 20/20/3 16/12/3
f 22/21/1 23/26/1 21/27/1
f 17/28/5 23/26/5 19/25/5
f 19/25/2 24/29/2 20/20/2
f 18/15/4 21/30/4 17/16/4
f 26/31/7 27/32/7 25/33/7
f 28/34/8 31/35/8 27/36/8
f 32/37/9 29/38/9 31/35/9
f 30/39/10 25/33/10 29/38/10
f 31/35/5 25/33/5 27/36/5
f 28/34/6 30/39/6 32/37/6
f 34/40/1 44/41/1 42/42/1
f 36/43/2 39/44/2 35/45/2
f 39/44/3 38/46/3 37/47/3
f 38/46/4 33/48/4 37/47/4
f 39/44/5 33/48/5 35/45/5
f 36/43/6 38/46/6 40/49/6
f 43/50/2 48/51/2 44/41/2
f 35/45/1 41/52/1 43/50/1
f 36/43/1 43/50/1 44/41/1
f 34/40/1 41/52/1 33/48/1
f 45/53/3 50/54/3 49/55/3
f 42/42/4 45/53/4 41/52/4
f 44/41/6 46/56/6 42/42/6
f 41/57/5 47/58/5 43/50/5
f 52/59/6 54/60/6 50/61/6
f 48/51/3 50/61/3 46/62/3
f 45/63/3 51/64/3 47/58/3
f 47/58/3 52/59/3 48/51/3
f 54/60/1 55/65/1 53/66/1
f 49/67/5 55/65/5 51/64/5
f 51/64/2 56/68/2 52/59/2
f 50/54/4 53/69/4 49/55/4
f 58/70/7 59/71/7 57/72/7
f 60/73/8 63/74/8 59/71/8
f 64/75/9 61/76/9 63/74/9
f 62/77/10 57/72/10 61/78/10
f 63/74/5 57/72/5 59/71/5
f 60/73/6 62/79/6 64/75/6
f 66/80/1 76/81/1 74/82/1
f 68/83/2 71/84/2 67/85/2
f 71/84/3 70/86/3 69/87/3
f 70/88/4 65/89/4 69/90/4
f 71/91/5 65/89/5 67/92/5
f 68/83/6 70/86/6 72/93/6
f 75/94/2 80/95/2 76/81/2
f 67/92/1 73/96/1 75/97/1
f 68/83/1 75/94/1 76/81/1
f 66/98/1 73/96/1 65/89/1
f 77/99/3 82/100/3 81/101/3
f 74/102/4 77/99/4 73/96/4
f 76/81/6 78/103/6 74/102/6
f 73/96/5 79/104/5 75/94/5
f 84/105/6 86/106/6 82/100/6
f 80/95/3 82/100/3 78/103/3
f 77/99/3 83/107/3 79/104/3
f 79/104/3 84/105/3 80/95/3
f 86/106/1 87/108/1 85/109/1
f 81/101/5 87/108/5 83/107/5
f 83/107/2 88/110/2 84/105/2
f 82/100/4 85/109/4 81/101/4
f 90/111/7 91/112/7 89/113/7
f 91/112/8 96/114/8 95/115/8
f 96/114/9 93/116/9 95/115/9
f 94/117/10 89/113/10 93/118/10
f 95/115/5 89/113/5 91/112/5
f 92/119/6 94/117/6 96/114/6
f 98/120/1 108/121/1 106/122/1
f 100/123/2 103/124/2 99/125/2
f 103/126/3 102/127/3 101/128/3
f 102/127/4 97/129/4 101/128/4
f 103/126/5 97/129/5 99/130/5
f 100/131/6 102/127/6 104/132/6
f 107/133/2 112/134/2 108/135/2
f 99/130/1 105/136/1 107/137/1
f 100/123/1 107/133/1 108/135/1
f 98/120/1 105/136/1 97/129/1
f 109/138/3 114/139/3 113/140/3
f 106/122/4 109/138/4 105/136/4
f 108/135/6 110/141/6 106/122/6
f 105/136/5 111/142/5 107/133/5
f 116/143/6 118/144/6 114/139/6
f 112/134/3 114/139/3 110/141/3
f 109/138/3 115/145/3 111/142/3
f 111/142/3 116/143/3 112/134/3
f 118/144/1 119/146/1 117/147/1
f 113/140/5 119/146/5 115/145/5
f 115/145/2 120/148/2 116/143/2
f 114/139/4 117/147/4 113/140/4
f 122/149/7 123/150/7 121/151/7
f 123/150/8 128/152/8 127/153/8
f 128/154/9 125/155/9 127/156/9
f 126/157/10 121/151/10 125/155/10
f 127/153/5 121/151/5 123/150/5
f 124/158/6 126/157/6 128/154/6
f 147/159/5 139/160/5 131/161/5
f 177/162/6 185/163/6 161/164/6
f 154/165/11 185/166/11 153/167/11
f 141/168/12 172/169/12 140/170/12
f 155/171/13 186/172/13 154/165/13
f 142/173/14 173/174/14 141/175/14
f 156/176/15 187/177/15 155/171/15
f 143/178/16 174/179/16 142/173/16
f 130/180/17 161/181/17 129/182/17
f 157/183/18 188/184/18 156/176/18
f 144/185/19 175/186/19 143/178/19
f 131/187/20 162/188/20 130/180/20
f 158/189/21 189/190/21 157/191/21
f 145/192/22 176/193/22 144/185/22
f 132/194/23 163/195/23 131/187/23
f 159/196/24 190/197/24 158/189/24
f 146/198/25 177/199/25 145/192/25
f 133/200/26 164/201/26 132/194/26
f 160/202/27 191/203/27 159/196/27
f 147/204/28 178/205/28 146/198/28
f 134/206/29 165/207/29 133/208/29
f 129/182/30 192/209/30 160/202/30
f 148/210/31 179/211/31 147/204/31
f 135/212/32 166/213/32 134/206/32
f 149/214/33 180/215/33 148/210/33
f 136/216/34 167/217/34 135/212/34
f 150/218/35 181/219/35 149/220/35
f 137/221/36 168/222/36 136/216/36
f 151/223/37 182/224/37 150/218/37
f 138/225/38 169/226/38 137/221/38
f 152/227/39 183/228/39 151/223/39
f 139/229/40 170/230/40 138/225/40
f 153/167/41 184/231/41 152/227/41
f 140/170/42 171/232/42 139/229/42
f 2/1/1 4/4/1 12/2/1
f 4/4/2 8/10/2 7/5/2
f 7/5/3 8/10/3 6/7/3
f 6/7/4 2/1/4 1/9/4
f 7/5/5 5/8/5 1/9/5
f 4/4/6 2/1/6 6/7/6
f 11/11/2 15/19/2 16/12/2
f 3/6/1 1/9/1 9/13/1
f 4/4/1 3/6/1 11/11/1
f 2/1/1 10/3/1 9/13/1
f 13/14/3 14/17/3 18/15/3
f 10/3/4 14/17/4 13/14/4
f 12/2/6 16/12/6 14/17/6
f 9/18/5 13/24/5 15/19/5
f 20/20/6 24/29/6 22/21/6
f 16/12/3 20/20/3 18/22/3
f 13/24/3 17/28/3 19/25/3
f 15/19/3 19/25/3 20/20/3
f 22/21/1 24/29/1 23/26/1
f 17/28/5 21/27/5 23/26/5
f 19/25/2 23/26/2 24/29/2
f 18/15/4 22/233/4 21/30/4
f 26/31/7 28/34/7 27/32/7
f 28/34/8 32/37/8 31/35/8
f 32/37/9 30/39/9 29/38/9
f 30/39/10 26/31/10 25/33/10
f 31/35/5 29/38/5 25/33/5
f 28/34/6 26/31/6 30/39/6
f 34/40/1 36/43/1 44/41/1
f 36/43/2 40/49/2 39/44/2
f 39/44/3 40/49/3 38/46/3
f 38/46/4 34/40/4 33/48/4
f 39/44/5 37/47/5 33/48/5
f 36/43/6 34/40/6 38/46/6
f 43/50/2 47/58/2 48/51/2
f 35/45/1 33/48/1 41/52/1
f 36/43/1 35/45/1 43/50/1
f 34/40/1 42/42/1 41/52/1
f 45/53/3 46/56/3 50/54/3
f 42/42/4 46/56/4 45/53/4
f 44/41/6 48/51/6 46/56/6
f 41/57/5 45/63/5 47/58/5
f 52/59/6 56/68/6 54/60/6
f 48/51/3 52/59/3 50/61/3
f 45/63/3 49/67/3 51/64/3
f 47/58/3 51/64/3 52/59/3
f 54/60/1 56/68/1 55/65/1
f 49/67/5 53/66/5 55/65/5
f 51/64/2 55/65/2 56/68/2
f 50/54/4 54/234/4 53/69/4
f 58/70/7 60/73/7 59/71/7
f 60/73/8 64/75/8 63/74/8
f 64/75/9 62/79/9 61/76/9
f 62/77/10 58/70/10 57/72/10
f 63/74/5 61/78/5 57/72/5
f 60/73/6 58/235/6 62/79/6
f 66/80/1 68/83/1 76/81/1
f 68/83/2 72/93/2 71/84/2
f 71/84/3 72/93/3 70/86/3
f 70/88/4 66/98/4 65/89/4
f 71/91/5 69/90/5 65/89/5
f 68/83/6 66/80/6 70/86/6
f 75/94/2 79/104/2 80/95/2
f 67/92/1 65/89/1 73/96/1
f 68/83/1 67/85/1 75/94/1
f 66/98/1 74/102/1 73/96/1
f 77/99/3 78/103/3 82/100/3
f 74/102/4 78/103/4 77/99/4
f 76/81/6 80/95/6 78/103/6
f 73/96/5 77/99/5 79/104/5
f 84/105/6 88/110/6 86/106/6
f 80/95/3 84/105/3 82/100/3
f 77/99/3 81/101/3 83/107/3
f 79/104/3 83/107/3 84/105/3
f 86/106/1 88/110/1 87/108/1
f 81/101/5 85/109/5 87/108/5
f 83/107/2 87/108/2 88/110/2
f 82/100/4 86/106/4 85/109/4
f 90/111/7 92/119/7 91/112/7
f 91/112/8 92/119/8 96/114/8
f 96/114/9 94/236/9 93/116/9
f 94/117/10 90/111/10 89/113/10
f 95/115/5 93/118/5 89/113/5
f 92/119/6 90/111/6 94/117/6
f 98/120/1 100/131/1 108/121/1
f 100/123/2 104/237/2 103/124/2
f 103/126/3 104/132/3 102/127/3
f 102/127/4 98/120/4 97/129/4
f 103/126/5 101/128/5 97/129/5
f 100/131/6 98/120/6 102/127/6
f 107/133/2 111/142/2 112/134/2
f 99/130/1 97/129/1 105/136/1
f 100/123/1 99/125/1 107/133/1
f 98/120/1 106/122/1 105/136/1
f 109/138/3 110/141/3 114/139/3
f 106/122/4 110/141/4 109/138/4
f 108/135/6 112/134/6 110/141/6
f 105/136/5 109/138/5 111/142/5
f 116/143/6 120/148/6 118/144/6
f 112/134/3 116/143/3 114/139/3
f 109/138/3 113/140/3 115/145/3
f 111/142/3 115/145/3 116/143/3
f 118/144/1 120/148/1 119/146/1
f 113/140/5 117/147/5 119/146/5
f 115/145/2 119/146/2 120/148/2
f 114/139/4 118/144/4 117/147/4
f 122/149/7 124/158/7 123/150/7
f 123/150/8 124/158/8 128/152/8
f 128/154/9 126/157/9 125/155/9
f 126/157/10 122/149/10 121/151/10
f 127/153/5 125/155/5 121/151/5
f 124/158/6 122/149/6 126/157/6
f 131/161/5 130/238/5 129/239/5
f 129/239/5 160/240/5 159/241/5
f 159/241/5 158/242/5 157/243/5
f 157/243/5 156/244/5 155/245/5
f 155/245/5 154/246/5 153/247/5
f 153/247/5 152/248/5 151/249/5
f 151/249/5 150/250/5 149/251/5
f 149/251/5 148/252/5 147/159/5
f 147/159/5 146/253/5 145/254/5
f 145/254/5 144/255/5 143/256/5
f 143/256/5 142/257/5 141/258/5
f 141/258/5 140/259/5 139/160/5
f 139/160/5 138/260/5 137/261/5
f 137/261/5 136/262/5 135/263/5
f 135/263/5 134/264/5 133/265/5
f 133/265/5 132/266/5 131/161/5
f 131/161/5 129/239/5 159/241/5
f 159/241/5 157/243/5 155/245/5
f 155/245/5 153/247/5 151/249/5
f 151/249/5 149/251/5 147/159/5
f 147/159/5 145/254/5 143/256/5
f 143/256/5 141/258/5 139/160/5
f 139/160/5 137/261/5 135/263/5
f 135/263/5 133/265/5 131/161/5
f 131/161/5 159/241/5 155/245/5
f 155/245/5 151/249/5 147/159/5
f 147/159/5 143/256/5 139/160/5
f 139/160/5 135/263/5 131/161/5
f 131/161/5 155/245/5 147/159/5
f 161/164/6 162/267/6 163/268/6
f 163/268/6 164/269/6 165/270/6
f 165/270/6 166/271/6 167/272/6
f 167/272/6 168/273/6 169/274/6
f 169/274/6 170/275/6 171/276/6
f 171/276/6 172/277/6 173/278/6
f 173/278/6 174/279/6 175/280/6
f 175/280/6 176/281/6 177/162/6
f 177/162/6 178/282/6 179/283/6
f 179/283/6 180/284/6 181/285/6
f 181/285/6 182/286/6 183/287/6
f 183/287/6 184/288/6 185/163/6
f 185/163/6 186/289/6 187/290/6
f 187/290/6 188/291/6 189/292/6
f 189/292/6 190/293/6 191/294/6
f 191/294/6 192/295/6 161/164/6
f 161/164/6 163/268/6 165/270/6
f 165/270/6 167/272/6 169/274/6
f 169/274/6 171/276/6 173/278/6
f 173/278/6 175/280/6 177/162/6
f 177/162/6 179/283/6 181/285/6
f 181/285/6 183/287/6 185/163/6
f 185/163/6 187/290/6 189/292/6
f 189/292/6 191/294/6 161/164/6
f 161/164/6 165/270/6 169/274/6
f 169/274/6 173/278/6 177/162/6
f 177/162/6 181/285/6 185/163/6
f 185/163/6 189/292/6 161/164/6
f 161/164/6 169/274/6 177/162/6
f 154/165/11 186/172/11 185/166/11
f 141/168/12 173/296/12 172/169/12
f 155/171/13 187/177/13 186/172/13
f 142/173/14 174/179/14 173/174/14
f 156/176/15 188/184/15 187/177/15
f 143/178/16 175/186/16 174/179/16
f 130/180/17 162/188/17 161/181/17
f 157/183/18 189/297/18 188/184/18
f 144/185/19 176/193/19 175/186/19
f 131/187/20 163/195/20 162/188/20
f 158/189/21 190/197/21 189/190/21
f 145/192/22 177/199/22 176/193/22
f 132/194/23 164/201/23 163/195/23
f 159/196/24 191/203/24 190/197/24
f 146/198/25 178/205/25 177/199/25
f 133/200/26 165/298/26 164/201/26
f 160/202/27 192/209/27 191/203/27
f 147/204/28 179/211/28 178/205/28
f 134/206/29 166/213/29 165/207/29
f 129/182/30 161/181/30 192/209/30
f 148/210/31 180/215/31 179/211/31
f 135/212/32 167/217/32 166/213/32
f 149/214/33 181/299/33 180/215/33
f 136/216/34 168/222/34 167/217/34
f 150/218/35 182/224/35 181/219/35
f 137/221/36 169/226/36 168/222/36
f 151/223/37 183/228/37 182/224/37
f 138/225/38 170/230/38 169/226/38
f 152/227/39 184/231/39 183/228/39
f 139/229/40 171/232/40 170/230/40
f 153/167/41 185/166/41 184/231/41
f 140/170/42 172/169/42 171/232/42
