# Blender 3.6.2
# www.blender.org
mtllib Brazo3.mtl
o Brazo3
v -0.279366 -0.765178 -0.185709
v -0.279366 0.576367 -0.183303
v -0.279366 -0.684510 -0.759171
v -0.279366 0.608716 -0.758338
v 0.279366 -0.765178 -0.185709
v 0.279366 0.576367 -0.183303
v 0.279366 -0.684510 -0.759171
v 0.279366 0.608716 -0.758338
v -0.279366 0.764967 -0.172693
v -0.279366 0.762254 -0.556322
v 0.279366 0.764967 -0.172693
v 0.279366 0.762254 -0.556322
v -0.279366 -0.260406 -2.141668
v -0.279366 0.597363 -1.736421
v 0.279366 -0.260406 -2.141668
v 0.279366 0.597363 -1.736421
v -0.279366 -0.073065 -2.330222
v -0.279366 0.469853 -2.139857
v 0.279366 -0.073065 -2.330222
v 0.279366 0.469853 -2.139857
v -0.279366 0.064381 -2.469752
v -0.279366 0.479336 -2.377498
v 0.279366 0.064381 -2.469752
v 0.279366 0.479336 -2.377498
v 0.000000 -0.845281 -0.220579
v -0.041410 -0.845386 -0.216502
v -0.081229 -0.845695 -0.204427
v -0.117926 -0.846196 -0.184818
v -0.150092 -0.846871 -0.158430
v -0.176489 -0.847693 -0.126274
v -0.196104 -0.848631 -0.089589
v -0.208183 -0.849649 -0.049783
v -0.212261 -0.850707 -0.008387
v -0.208183 -0.851766 0.033010
v -0.196104 -0.852784 0.072816
v -0.176489 -0.853722 0.109501
v -0.150092 -0.854544 0.141656
v -0.117926 -0.855218 0.168044
v -0.081229 -0.855720 0.187654
v -0.041410 -0.856029 0.199728
v 0.000000 -0.856133 0.203806
v 0.041410 -0.856029 0.199728
v 0.081229 -0.855720 0.187654
v 0.117926 -0.855218 0.168044
v 0.150092 -0.854544 0.141656
v 0.176489 -0.853722 0.109501
v 0.196104 -0.852784 0.072816
v 0.208183 -0.851766 0.033010
v 0.212261 -0.850707 -0.008387
v 0.208183 -0.849649 -0.049783
v 0.196104 -0.848631 -0.089589
v 0.176489 -0.847693 -0.126274
v 0.150092 -0.846871 -0.158430
v 0.117926 -0.846196 -0.184818
v 0.081229 -0.845695 -0.204427
v 0.041410 -0.845386 -0.216502
v 0.000000 0.856133 -0.203806
v -0.041410 0.856029 -0.199728
v -0.081229 0.855720 -0.187653
v -0.117926 0.855219 -0.168044
v -0.150092 0.854544 -0.141656
v -0.176489 0.853722 -0.109501
v -0.196104 0.852784 -0.072816
v -0.208183 0.851766 -0.033010
v -0.212261 0.850707 0.008387
v -0.208183 0.849649 0.049783
v -0.196104 0.848631 0.089589
v -0.176489 0.847693 0.126274
v -0.150092 0.846871 0.158429
v -0.117926 0.846196 0.184818
v -0.081229 0.845695 0.204427
v -0.041410 0.845386 0.216502
v 0.000000 0.845282 0.220579
v 0.041410 0.845386 0.216502
v 0.081229 0.845695 0.204427
v 0.117926 0.846196 0.184818
v 0.150092 0.846871 0.158429
v 0.176489 0.847693 0.126274
v 0.196104 0.848631 0.089589
v 0.208183 0.849649 0.049783
v 0.212261 0.850707 0.008387
v 0.208183 0.851766 -0.033010
v 0.196104 0.852784 -0.072816
v 0.176489 0.853722 -0.109501
v 0.150092 0.854544 -0.141656
v 0.117926 0.855219 -0.168044
v 0.081229 0.855720 -0.187653
v 0.041410 0.856029 -0.199728
vn -1.0000 -0.0000 -0.0000
vn 1.0000 -0.0000 -0.0000
vn -0.0000 -0.0018 1.0000
vn -0.0000 -0.9903 -0.1393
vn -0.0000 1.0000 -0.0071
vn -0.0000 -0.0562 0.9984
vn -0.0000 0.7962 -0.6051
vn -0.0000 -0.9560 -0.2933
vn -0.0000 0.9999 -0.0116
vn -0.0000 0.9992 0.0399
vn -0.0000 -0.7094 -0.7048
vn -0.0000 0.9535 -0.3014
vn -0.0000 0.2170 -0.9762
vn -0.0000 -0.7124 -0.7018
vn -0.0000 -0.9997 -0.0256
vn -0.0000 0.9997 0.0256
vn 0.6343 -0.0076 0.7730
vn -0.9569 0.0029 -0.2903
vn 0.7730 -0.0063 0.6344
vn -0.9952 0.0010 -0.0980
vn 0.8819 -0.0046 0.4714
vn -0.9952 -0.0010 0.0980
vn 0.9569 -0.0029 0.2903
vn -0.9569 -0.0029 0.2903
vn 0.9952 -0.0010 0.0980
vn -0.8819 -0.0046 0.4714
vn 0.9952 0.0010 -0.0980
vn -0.7730 -0.0063 0.6344
vn 0.9569 0.0029 -0.2903
vn -0.6343 -0.0076 0.7730
vn 0.8819 0.0046 -0.4714
vn -0.4714 -0.0087 0.8819
vn -0.0980 0.0098 -0.9951
vn 0.7730 0.0063 -0.6344
vn -0.2902 -0.0094 0.9569
vn -0.2903 0.0094 -0.9569
vn 0.6343 0.0076 -0.7730
vn -0.0980 -0.0098 0.9951
vn -0.4714 0.0087 -0.8819
vn 0.4714 0.0087 -0.8819
vn 0.0980 -0.0098 0.9951
vn -0.6343 0.0076 -0.7730
vn 0.2903 0.0094 -0.9569
vn 0.2902 -0.0094 0.9569
vn -0.7730 0.0063 -0.6344
vn 0.0980 0.0098 -0.9951
vn 0.4714 -0.0087 0.8819
vn -0.8819 0.0046 -0.4714
vn -0.0000 0.9997 0.0255
vt 0.520774 0.001847
vt 0.271026 0.117745
vt 0.255422 0.000000
vt 0.845143 0.117745
vt 0.592195 0.320393
vt 0.589349 0.119830
vt 0.595395 0.001847
vt 0.860747 -0.000000
vt 0.744578 0.508101
vt 0.993802 0.779969
vt 0.744578 0.779969
vt 0.255422 0.378428
vt 0.006198 0.491735
vt 0.006198 0.378428
vt 0.558856 0.078669
vt 0.558085 -0.000000
vt 0.255422 0.547527
vt 0.504646 0.469853
vt 0.504646 0.547527
vt 0.557313 0.078669
vt 0.526820 0.119830
vt 0.993802 0.469853
vt 0.993802 0.508101
vt 0.255422 0.590013
vt 0.504646 0.590013
vt 0.762105 0.402004
vt 0.617663 0.402906
vt 0.255422 0.086997
vt 0.255422 0.788093
vt 0.523975 0.320393
vt 0.354064 0.402004
vt 0.504646 0.871075
vt 0.255422 0.919074
vt 0.255422 0.871075
vt 0.006198 0.086997
vt 0.255422 0.036944
vt 0.504646 0.788093
vt 0.498506 0.402906
vt 0.391003 0.440999
vt 0.860747 0.255520
vt 0.943275 0.000000
vt 0.943275 0.255520
vt 0.418104 0.469853
vt 0.698065 0.469853
vt 0.615933 0.451658
vt 0.006198 0.036944
vt 0.255422 0.000000
vt 0.821011 0.841341
vt 0.794908 0.967190
vt 0.746075 0.912581
vt 0.860747 0.350635
vt 0.906658 0.255520
vt 0.944336 0.354365
vt 0.525170 0.814860
vt 0.539518 0.470092
vt 0.539518 0.814926
vt 0.744578 0.814896
vt 0.736614 0.470023
vt 0.744578 0.469853
vt 0.513396 0.814779
vt 0.525170 0.470026
vt 0.736614 0.815066
vt 0.728331 0.470200
vt 0.504646 0.814687
vt 0.513396 0.469945
vt 0.728331 0.815243
vt 0.720049 0.470377
vt 0.704121 0.815420
vt 0.712085 0.470547
vt 0.712085 0.815590
vt 0.720049 0.815420
vt 0.712085 0.470547
vt 0.695838 0.815243
vt 0.704121 0.470377
vt 0.679592 0.814687
vt 0.670842 0.469945
vt 0.679592 0.469853
vt 0.687556 0.815066
vt 0.695838 0.470200
vt 0.670842 0.814779
vt 0.659068 0.470026
vt 0.679592 0.814896
vt 0.687556 0.470023
vt 0.659068 0.814860
vt 0.644720 0.470092
vt 0.172394 0.836533
vt 0.181144 0.491735
vt 0.181144 0.836504
vt 0.644720 0.814926
vt 0.628351 0.470142
vt 0.093671 0.836609
vt 0.075200 0.491838
vt 0.093671 0.491841
vt 0.160620 0.836559
vt 0.172394 0.491765
vt 0.628351 0.814975
vt 0.610590 0.470172
vt 0.075200 0.836606
vt 0.057439 0.491828
vt 0.146272 0.836581
vt 0.160620 0.491791
vt 0.610590 0.815005
vt 0.592119 0.470182
vt 0.057439 0.836596
vt 0.041070 0.491812
vt 0.129903 0.836596
vt 0.146272 0.491812
vt 0.573648 0.815005
vt 0.592119 0.815016
vt 0.041070 0.836581
vt 0.026722 0.491791
vt 0.112142 0.836606
vt 0.129903 0.491828
vt 0.555887 0.814975
vt 0.573648 0.470172
vt 0.026722 0.836559
vt 0.014948 0.491765
vt 0.112142 0.491838
vt 0.555887 0.470142
vt 0.014948 0.836533
vt 0.006198 0.491735
vt 0.255422 0.491735
vt 0.255422 0.469853
vt 0.558085 0.000000
vt 0.744578 0.469853
vt 0.725166 0.440999
vt 0.504646 0.919074
vt 0.860747 0.000000
vt 0.500236 0.451658
vt 0.006198 0.000000
vt 0.744578 0.894293
vt 0.744578 0.875340
vt 0.746075 0.856449
vt 0.749012 0.838346
vt 0.753277 0.821727
vt 0.758704 0.807231
vt 0.765086 0.795415
vt 0.772177 0.786732
vt 0.779705 0.781516
vt 0.787381 0.779969
vt 0.794909 0.782149
vt 0.802000 0.787972
vt 0.808382 0.797215
vt 0.813809 0.809523
vt 0.818073 0.824422
vt 0.822508 0.859628
vt 0.822508 0.878581
vt 0.821010 0.897472
vt 0.818073 0.915575
vt 0.813809 0.932194
vt 0.808382 0.946690
vt 0.802000 0.958507
vt 0.787380 0.972405
vt 0.779705 0.973952
vt 0.772177 0.971773
vt 0.765086 0.965949
vt 0.758704 0.956706
vt 0.753277 0.944398
vt 0.749012 0.929499
vt 0.942730 0.373249
vt 0.939579 0.391335
vt 0.935005 0.407929
vt 0.929184 0.422393
vt 0.922338 0.434171
vt 0.914732 0.442811
vt 0.906658 0.447980
vt 0.898425 0.449479
vt 0.890350 0.447252
vt 0.882744 0.441384
vt 0.875899 0.432099
vt 0.870077 0.419756
vt 0.865504 0.404828
vt 0.862353 0.387889
vt 0.860747 0.369590
vt 0.862353 0.331751
vt 0.865504 0.313664
vt 0.870078 0.297070
vt 0.875899 0.282606
vt 0.882745 0.270828
vt 0.890351 0.262188
vt 0.898425 0.257020
vt 0.914733 0.257747
vt 0.922339 0.263616
vt 0.929184 0.272900
vt 0.935006 0.285243
vt 0.939579 0.300171
vt 0.942730 0.317110
vt 0.944336 0.335409
vt 0.504646 0.469853
vt 0.679592 0.469853
vt 0.006198 0.836504
s 0
usemtl RustRed
f 2/1/1 3/2/1 1/3/1
f 7/4/2 16/5/2 8/6/2
f 7/4/2 6/7/2 5/8/2
f 6/9/3 1/10/3 5/11/3
f 7/12/4 1/13/4 3/14/4
f 6/7/2 12/15/2 11/16/2
f 10/17/5 11/18/5 12/19/5
f 2/1/1 10/20/1 4/21/1
f 6/9/6 9/22/6 2/23/6
f 4/24/7 12/19/7 8/25/7
f 15/26/2 20/27/2 16/5/2
f 3/14/8 15/28/8 7/12/8
f 8/25/9 14/29/9 4/24/9
f 3/2/1 14/30/1 13/31/1
f 20/32/10 22/33/10 18/34/10
f 13/35/11 19/36/11 15/28/11
f 16/37/12 18/34/12 14/29/12
f 13/31/1 18/38/1 17/39/1
f 22/40/13 23/41/13 21/42/13
f 18/38/1 21/43/1 17/39/1
f 20/27/2 23/44/2 24/45/2
f 17/46/14 23/47/14 19/36/14
f 43/48/15 35/49/15 27/50/15
f 73/51/16 81/52/16 57/53/16
f 45/54/17 76/55/17 44/56/17
f 31/57/18 64/58/18 63/59/18
f 46/60/19 77/61/19 45/54/19
f 32/62/20 65/63/20 64/58/20
f 47/64/21 78/65/21 46/60/21
f 33/66/22 66/67/22 65/63/22
f 48/68/23 79/69/23 47/70/23
f 34/71/24 67/72/24 66/67/24
f 49/73/25 80/74/25 48/68/25
f 35/75/26 68/76/26 67/77/26
f 50/78/27 81/79/27 49/73/27
f 36/80/28 69/81/28 68/76/28
f 51/82/29 82/83/29 50/78/29
f 37/84/30 70/85/30 69/81/30
f 52/86/31 83/87/31 51/88/31
f 38/89/32 71/90/32 70/85/32
f 25/91/33 58/92/33 57/93/33
f 53/94/34 84/95/34 52/86/34
f 39/96/35 72/97/35 71/90/35
f 26/98/36 59/99/36 58/92/36
f 54/100/37 85/101/37 53/94/37
f 40/102/38 73/103/38 72/97/38
f 27/104/39 60/105/39 59/99/39
f 55/106/40 86/107/40 54/100/40
f 42/108/41 73/103/41 41/109/41
f 28/110/42 61/111/42 60/105/42
f 56/112/43 87/113/43 55/106/43
f 43/114/44 74/115/44 42/108/44
f 29/116/45 62/117/45 61/111/45
f 25/91/46 88/118/46 56/112/46
f 44/56/47 75/119/47 43/114/47
f 30/120/48 63/121/48 62/117/48
f 2/1/1 4/21/1 3/2/1
f 7/4/2 15/26/2 16/5/2
f 7/4/2 8/6/2 6/7/2
f 6/9/3 2/23/3 1/10/3
f 7/12/4 5/122/4 1/13/4
f 6/7/2 8/6/2 12/15/2
f 10/17/5 9/123/5 11/18/5
f 2/1/1 9/124/1 10/20/1
f 6/9/6 11/125/6 9/22/6
f 4/24/7 10/17/7 12/19/7
f 15/26/2 19/126/2 20/27/2
f 3/14/8 13/35/8 15/28/8
f 8/25/9 16/37/9 14/29/9
f 3/2/1 4/21/1 14/30/1
f 20/32/10 24/127/10 22/33/10
f 13/35/11 17/46/11 19/36/11
f 16/37/12 20/32/12 18/34/12
f 13/31/1 14/30/1 18/38/1
f 22/40/13 24/128/13 23/41/13
f 18/38/1 22/129/1 21/43/1
f 20/27/2 19/126/2 23/44/2
f 17/46/14 21/130/14 23/47/14
f 27/50/15 26/131/15 25/132/15
f 25/132/15 56/133/15 55/134/15
f 55/134/15 54/135/15 53/136/15
f 53/136/15 52/137/15 51/138/15
f 51/138/15 50/139/15 49/140/15
f 49/140/15 48/141/15 47/142/15
f 47/142/15 46/143/15 45/144/15
f 45/144/15 44/145/15 43/48/15
f 43/48/15 42/146/15 41/147/15
f 41/147/15 40/148/15 39/149/15
f 39/149/15 38/150/15 37/151/15
f 37/151/15 36/152/15 35/49/15
f 35/49/15 34/153/15 33/154/15
f 33/154/15 32/155/15 31/156/15
f 31/156/15 30/157/15 29/158/15
f 29/158/15 28/159/15 27/50/15
f 27/50/15 25/132/15 55/134/15
f 55/134/15 53/136/15 51/138/15
f 51/138/15 49/140/15 47/142/15
f 47/142/15 45/144/15 43/48/15
f 43/48/15 41/147/15 39/149/15
f 39/149/15 37/151/15 35/49/15
f 35/49/15 33/154/15 31/156/15
f 31/156/15 29/158/15 27/50/15
f 27/50/15 55/134/15 51/138/15
f 51/138/15 47/142/15 43/48/15
f 43/48/15 39/149/15 35/49/15
f 35/49/15 31/156/15 27/50/15
f 27/50/15 51/138/15 43/48/15
f 57/53/16 58/160/16 59/161/16
f 59/161/16 60/162/16 61/163/16
f 61/163/16 62/164/16 63/165/16
f 63/165/16 64/166/16 65/167/16
f 65/167/16 66/168/16 67/169/16
f 67/169/16 68/170/16 69/171/16
f 69/171/16 70/172/16 71/173/16
f 71/173/16 72/174/16 73/51/16
f 73/51/16 74/175/16 75/176/16
f 75/176/16 76/177/16 77/178/16
f 77/178/16 78/179/16 79/180/16
f 79/180/16 80/181/16 81/52/16
f 81/52/16 82/182/16 83/183/16
f 83/183/16 84/184/16 85/185/16
f 85/185/16 86/186/16 87/187/16
f 87/187/49 88/188/49 57/53/49
f 57/53/16 59/161/16 61/163/16
f 61/163/16 63/165/16 65/167/16
f 65/167/16 67/169/16 69/171/16
f 69/171/16 71/173/16 73/51/16
f 73/51/16 75/176/16 77/178/16
f 77/178/16 79/180/16 81/52/16
f 81/52/16 83/183/16 85/185/16
f 85/185/16 87/187/16 57/53/16
f 57/53/16 61/163/16 65/167/16
f 65/167/16 69/171/16 73/51/16
f 73/51/16 77/178/16 81/52/16
f 81/52/16 85/185/16 57/53/16
f 57/53/16 65/167/16 73/51/16
f 45/54/17 77/61/17 76/55/17
f 31/57/18 32/62/18 64/58/18
f 46/60/19 78/65/19 77/61/19
f 32/62/20 33/66/20 65/63/20
f 47/64/21 79/189/21 78/65/21
f 33/66/22 34/71/22 66/67/22
f 48/68/23 80/74/23 79/69/23
f 34/71/24 35/70/24 67/72/24
f 49/73/25 81/79/25 80/74/25
f 35/75/26 36/80/26 68/76/26
f 50/78/27 82/83/27 81/79/27
f 36/80/28 37/84/28 69/81/28
f 51/82/29 83/190/29 82/83/29
f 37/84/30 38/89/30 70/85/30
f 52/86/31 84/95/31 83/87/31
f 38/89/32 39/96/32 71/90/32
f 25/91/33 26/98/33 58/92/33
f 53/94/34 85/101/34 84/95/34
f 39/96/35 40/102/35 72/97/35
f 26/98/36 27/104/36 59/99/36
f 54/100/37 86/107/37 85/101/37
f 40/102/38 41/109/38 73/103/38
f 27/104/39 28/110/39 60/105/39
f 55/106/40 87/113/40 86/107/40
f 42/108/41 74/115/41 73/103/41
f 28/110/42 29/116/42 61/111/42
f 56/112/43 88/118/43 87/113/43
f 43/114/44 75/119/44 74/115/44
f 29/116/45 30/120/45 62/117/45
f 25/91/46 57/93/46 88/118/46
f 44/56/47 76/55/47 75/119/47
f 30/120/48 31/191/48 63/121/48
