# Blender 3.6.2
# www.blender.org
mtllib Brazo1.mtl
o Brazo1
v -0.526824 -0.339451 -0.689549
v -0.526824 -0.198404 -0.742523
v -0.526824 -0.049733 -0.766962
v -0.526824 0.100850 -0.761928
v -0.526824 0.247557 -0.727613
v -0.526823 0.384750 -0.665336
v -0.526823 0.507158 -0.577491
v -0.526823 0.610076 -0.467453
v -0.526823 0.689549 -0.339451
v -0.526823 0.742523 -0.198404
v -0.526823 0.766962 -0.049733
v -0.526823 0.761928 0.100850
v -0.526824 0.727613 0.247557
v -0.526824 0.665336 0.384750
v -0.526824 0.577491 0.507158
v -0.526824 0.467453 0.610076
v -0.526824 0.339451 0.689549
v -0.526824 0.198404 0.742523
v -0.526824 0.049733 0.766962
v -0.526824 -0.100850 0.761928
v -0.526824 -0.247557 0.727613
v -0.526824 -0.384750 0.665336
v -0.526824 -0.507158 0.577491
v -0.526824 -0.610076 0.467453
v -0.526824 -0.689549 0.339451
v -0.526824 -0.742523 0.198404
v -0.526824 -0.766962 0.049733
v -0.526824 -0.761928 -0.100850
v -0.526824 -0.727613 -0.247557
v -0.526824 -0.665336 -0.384750
v -0.526824 -0.577491 -0.507158
v -0.526824 -0.467453 -0.610076
v 0.526824 -0.339451 -0.689549
v 0.526824 -0.198404 -0.742523
v 0.526824 -0.049733 -0.766962
v 0.526824 0.100850 -0.761928
v 0.526824 0.247557 -0.727613
v 0.526824 0.384750 -0.665336
v 0.526824 0.507158 -0.577491
v 0.526824 0.610076 -0.467453
v 0.526824 0.689549 -0.339451
v 0.526824 0.742523 -0.198404
v 0.526824 0.766962 -0.049733
v 0.526824 0.761928 0.100850
v 0.526824 0.727613 0.247557
v 0.526824 0.665336 0.384750
v 0.526824 0.577491 0.507158
v 0.526824 0.467453 0.610076
v 0.526824 0.339451 0.689549
v 0.526824 0.198404 0.742523
v 0.526824 0.049733 0.766962
v 0.526824 -0.100850 0.761928
v 0.526824 -0.247557 0.727613
v 0.526823 -0.384750 0.665336
v 0.526823 -0.507158 0.577491
v 0.526823 -0.610076 0.467453
v 0.526823 -0.689549 0.339451
v 0.526823 -0.742523 0.198404
v 0.526823 -0.766962 0.049733
v 0.526823 -0.761928 -0.100850
v 0.526824 -0.727613 -0.247557
v 0.526824 -0.665336 -0.384750
v 0.526824 -0.577491 -0.507158
v 0.526824 -0.467453 -0.610076
v -0.334211 0.987395 1.076117
v -0.334211 3.906286 1.060627
v -0.334211 0.346938 -1.295490
v -0.334211 3.075391 -1.191448
v 0.334211 0.987395 1.076117
v 0.334211 3.906286 1.060627
v 0.334211 0.346938 -1.295490
v 0.334211 3.075391 -1.191448
v -0.334211 0.049750 0.751249
v -0.334211 0.128639 -1.146528
v 0.334211 0.049750 0.751249
v 0.334211 0.128639 -1.146528
v -0.334211 4.430430 0.704162
v -0.334211 3.749851 -1.013171
v 0.334211 4.430430 0.704162
v 0.334211 3.749851 -1.013171
v -0.427245 1.308806 0.733490
v -0.427245 3.368264 0.722560
v -0.427245 0.856923 -0.939826
v -0.427245 2.782017 -0.866418
v 0.427245 1.308806 0.733490
v 0.427245 3.368265 0.722560
v 0.427245 0.856923 -0.939826
v 0.427245 2.782017 -0.866418
vn -1.0000 -0.0000 -0.0000
vn 1.0000 -0.0000 -0.0000
vn -0.0000 0.7303 -0.6831
vn -0.0000 -0.4133 0.9106
vn -0.0000 0.8496 -0.5275
vn -0.0000 -0.5830 0.8124
vn -0.0000 0.9362 -0.3516
vn -0.0000 -0.7303 0.6831
vn -0.0000 0.9868 -0.1622
vn -0.0000 -0.8496 0.5275
vn -0.0000 0.9994 0.0334
vn -0.0000 -0.9362 0.3516
vn -0.0000 0.9737 0.2278
vn -0.0000 -0.9868 0.1622
vn -0.0000 0.9106 0.4133
vn -0.0000 -0.9994 -0.0334
vn -0.0000 0.8124 0.5830
vn -0.0000 -0.3516 -0.9362
vn -0.0000 -0.9737 -0.2278
vn -0.0000 0.6831 0.7303
vn -0.0000 -0.1622 -0.9868
vn -0.0000 -0.9106 -0.4133
vn -0.0000 0.5275 0.8496
vn -0.0000 0.0334 -0.9994
vn -0.0000 -0.8124 -0.5830
vn -0.0000 0.3516 0.9362
vn -0.0000 0.2278 -0.9737
vn -0.0000 -0.6831 -0.7303
vn -0.0000 0.1622 0.9868
vn -0.0000 0.4133 -0.9106
vn -0.0000 -0.5275 -0.8496
vn -0.0000 -0.0334 0.9994
vn -0.0000 0.5830 -0.8124
vn -0.0000 -0.2278 0.9737
vn -0.0000 0.0381 -0.9993
vn -0.0000 0.0053 1.0000
vn -0.0000 -0.3274 0.9449
vn -0.0000 -0.9991 -0.0415
vn -0.0000 -0.5637 -0.8260
vn -0.0000 0.9297 -0.3684
vn -0.0000 0.5624 0.8269
vn -0.0000 0.2555 -0.9668
vn -0.0000 0.9382 -0.3461
vn -0.0000 -0.9654 0.2607
vt 0.010373 0.789576
vt 0.083147 0.648085
vt 0.219299 0.723276
vt 0.223473 0.745592
vt 0.342811 0.643646
vt 0.440749 0.767260
vt 0.590384 0.878194
vt 0.440749 0.856664
vt 0.590384 0.856664
vt 0.909412 1.000000
vt 0.891397 0.846584
vt 0.909412 0.846584
vt 0.590384 0.900377
vt 0.440749 0.878194
vt 0.871381 1.000000
vt 0.891397 1.000000
vt 0.590384 0.922360
vt 0.440749 0.900377
vt 0.850131 1.000000
vt 0.871381 0.846584
vt 0.590384 0.943299
vt 0.440749 0.922360
vt 0.828465 1.000000
vt 0.850131 0.846584
vt 0.590384 0.962388
vt 0.440749 0.943299
vt 0.807216 1.000000
vt 0.828465 0.846584
vt 0.440749 0.978894
vt 0.440749 0.962388
vt 0.787199 1.000000
vt 0.807216 0.846584
vt 0.918820 0.686353
vt 0.769185 0.703319
vt 0.769185 0.686353
vt 0.769185 1.000000
vt 0.787199 0.846584
vt 0.918820 0.722756
vt 0.918820 0.703319
vt 0.440749 0.697877
vt 0.590384 0.719607
vt 0.440749 0.719607
vt 0.440749 0.802910
vt 0.590384 0.818815
vt 0.440749 0.818815
vt 0.769185 0.743917
vt 0.769185 0.722756
vt 0.440749 0.677464
vt 0.590384 0.697877
vt 0.440749 0.784286
vt 0.590384 0.802910
vt 0.918820 0.765989
vt 0.918820 0.743917
vt 0.440749 0.659153
vt 0.590384 0.677464
vt 0.440749 0.763657
vt 0.590384 0.784286
vt 0.918820 0.788125
vt 0.769185 0.765989
vt 0.440749 0.643646
vt 0.590384 0.659153
vt 0.440749 0.741818
vt 0.590384 0.763657
vt 0.769185 0.809472
vt 0.769185 0.788125
vt 0.590384 0.836614
vt 0.440749 0.818815
vt 0.590384 0.818815
vt 0.590384 0.741818
vt 0.918820 0.829212
vt 0.918820 0.809472
vt 0.440749 0.836614
vt 0.769185 0.846584
vt 0.769185 0.829212
vt 0.340228 0.504513
vt 0.674258 0.206886
vt 0.674258 0.608317
vt 0.674258 0.482119
vt 0.769185 0.812895
vt 0.674258 0.812895
vt 0.006198 0.206886
vt 0.340228 0.504513
vt 0.006198 0.608317
vt 0.769185 0.389775
vt 0.674258 0.000000
vt 0.769185 0.000000
vt 0.769185 0.345178
vt 0.864112 0.231569
vt 0.864112 0.345178
vt 0.322184 0.075580
vt 0.027909 0.107032
vt 0.268611 0.000000
vt 0.864112 0.000000
vt 0.769185 0.231569
vt 0.769185 0.000000
vt 0.674258 0.851840
vt 0.651874 0.639793
vt 0.381372 0.643646
vt 0.028582 0.639793
vt 0.769185 0.615366
vt 0.864112 0.345178
vt 0.864112 0.615366
vt 0.358272 0.075580
vt 0.652547 0.107032
vt 0.674258 0.482119
vt 0.674258 0.389775
vt 0.864112 0.686353
vt 0.769185 0.482119
vt 0.769185 0.851840
vt 0.299084 0.643646
vt 0.411845 -0.000000
vt 0.769185 0.482119
vt 0.451898 0.463525
vt 0.903795 0.486394
vt 0.488138 0.512900
vt -0.000000 0.486394
vt 0.451898 0.463525
vt 0.415658 0.512900
vt 0.903795 0.437500
vt 0.000000 0.437500
vt 0.478182 0.537700
vt 0.925484 0.512900
vt 0.925484 0.537700
vt 0.402436 0.537700
vt 0.795682 0.562500
vt 0.402436 0.562500
vt -0.000000 0.512900
vt 0.478182 0.537700
vt -0.000000 0.537700
vt 0.000000 0.537700
vt 0.000000 0.562500
vt 0.223473 0.745050
vt 0.223473 0.767260
vt 0.219299 0.789054
vt 0.211109 0.809594
vt 0.199220 0.828092
vt 0.184088 0.843834
vt 0.166295 0.856218
vt 0.146524 0.864767
vt 0.125536 0.869153
vt 0.104136 0.869206
vt 0.083147 0.864925
vt 0.063377 0.856475
vt 0.045583 0.844180
vt 0.030452 0.828513
vt 0.018563 0.810075
vt 0.006198 0.767802
vt 0.006198 0.745592
vt 0.010373 0.723798
vt 0.018563 0.703257
vt 0.030452 0.684760
vt 0.045583 0.669017
vt 0.063377 0.656634
vt 0.104136 0.643699
vt 0.125536 0.643646
vt 0.146524 0.647927
vt 0.166295 0.656377
vt 0.184088 0.668672
vt 0.199220 0.684339
vt 0.211109 0.702777
vt 0.436574 0.789054
vt 0.428384 0.809595
vt 0.416495 0.828092
vt 0.401364 0.843834
vt 0.383570 0.856218
vt 0.363800 0.864767
vt 0.342811 0.869153
vt 0.321411 0.869206
vt 0.300423 0.864925
vt 0.280652 0.856475
vt 0.262859 0.844180
vt 0.247727 0.828513
vt 0.235838 0.810075
vt 0.227648 0.789576
vt 0.223473 0.767802
vt 0.227648 0.723798
vt 0.235838 0.703257
vt 0.247727 0.684760
vt 0.262859 0.669017
vt 0.280652 0.656634
vt 0.300423 0.648085
vt 0.321411 0.643699
vt 0.363799 0.647927
vt 0.383570 0.656377
vt 0.401363 0.668672
vt 0.416495 0.684339
vt 0.428384 0.702777
vt 0.436574 0.723276
vt 0.440749 0.745050
vt 0.590384 0.978894
vt 0.769185 0.846584
vt 0.590384 0.643646
vt 0.918820 0.846584
vt 0.478182 0.512900
vt 0.795682 0.537700
vt 0.478182 0.512900
s 0
usemtl RustRed
f 19/1/1 11/2/1 3/3/1
f 49/4/2 57/5/2 33/6/2
f 8/7/3 39/8/3 7/9/3
f 21/10/4 54/11/4 53/12/4
f 9/13/5 40/14/5 8/7/5
f 23/15/6 54/11/6 22/16/6
f 10/17/7 41/18/7 9/13/7
f 24/19/8 55/20/8 23/15/8
f 11/21/9 42/22/9 10/17/9
f 25/23/10 56/24/10 24/19/10
f 12/25/11 43/26/11 11/21/11
f 26/27/12 57/28/12 25/23/12
f 12/25/13 45/29/13 44/30/13
f 27/31/14 58/32/14 26/27/14
f 13/33/15 46/34/15 45/35/15
f 28/36/16 59/37/16 27/31/16
f 15/38/17 46/34/17 14/39/17
f 2/40/18 33/41/18 1/42/18
f 29/43/19 60/44/19 28/45/19
f 15/38/20 48/46/20 47/47/20
f 3/48/21 34/49/21 2/40/21
f 30/50/22 61/51/22 29/43/22
f 17/52/23 48/46/23 16/53/23
f 4/54/24 35/55/24 3/48/24
f 31/56/25 62/57/25 30/50/25
f 18/58/26 49/59/26 17/52/26
f 5/60/27 36/61/27 4/54/27
f 32/62/28 63/63/28 31/56/28
f 18/58/29 51/64/29 50/65/29
f 6/66/30 37/67/30 5/68/30
f 1/42/31 64/69/31 32/62/31
f 20/70/32 51/64/32 19/71/32
f 7/9/33 38/72/33 6/66/33
f 20/70/34 53/73/34 52/74/34
f 65/75/1 68/76/1 67/77/1
f 68/78/35 71/79/35 67/80/35
f 72/81/2 69/82/2 71/83/2
f 70/84/36 65/85/36 69/86/36
f 65/87/37 75/88/37 69/89/37
f 70/90/2 80/91/2 79/92/2
f 76/93/38 73/94/38 74/95/38
f 71/79/39 74/96/39 67/80/39
f 65/75/1 74/97/1 73/98/1
f 69/82/2 76/99/2 71/83/2
f 78/100/40 79/101/40 80/102/40
f 66/103/1 78/104/1 68/76/1
f 70/84/41 77/105/41 66/106/41
f 68/35/42 80/102/42 72/107/42
f 65/75/1 66/103/1 68/76/1
f 68/78/35 72/108/35 71/79/35
f 72/81/2 70/90/2 69/82/2
f 70/84/36 66/106/36 65/85/36
f 65/87/37 73/94/37 75/88/37
f 70/90/2 72/81/2 80/91/2
f 76/93/38 75/88/38 73/94/38
f 71/79/39 76/109/39 74/96/39
f 65/75/1 67/77/1 74/97/1
f 69/82/2 75/110/2 76/99/2
f 78/100/40 77/87/40 79/101/40
f 66/103/1 77/111/1 78/104/1
f 70/84/41 79/112/41 77/105/41
f 68/35/42 78/100/42 80/102/42
f 3/3/1 2/132/1 1/133/1
f 1/133/1 32/134/1 31/135/1
f 31/135/1 30/136/1 29/137/1
f 29/137/1 28/138/1 27/139/1
f 27/139/1 26/140/1 25/141/1
f 25/141/1 24/142/1 23/143/1
f 23/143/1 22/144/1 21/145/1
f 21/145/1 20/146/1 19/1/1
f 19/1/1 18/147/1 17/148/1
f 17/148/1 16/149/1 15/150/1
f 15/150/1 14/151/1 13/152/1
f 13/152/1 12/153/1 11/2/1
f 11/2/1 10/154/1 9/155/1
f 9/155/1 8/156/1 7/157/1
f 7/157/1 6/158/1 5/159/1
f 5/159/1 4/160/1 3/3/1
f 3/3/1 1/133/1 31/135/1
f 31/135/1 29/137/1 27/139/1
f 27/139/1 25/141/1 23/143/1
f 23/143/1 21/145/1 19/1/1
f 19/1/1 17/148/1 15/150/1
f 15/150/1 13/152/1 11/2/1
f 11/2/1 9/155/1 7/157/1
f 7/157/1 5/159/1 3/3/1
f 3/3/1 31/135/1 27/139/1
f 27/139/1 23/143/1 19/1/1
f 19/1/1 15/150/1 11/2/1
f 11/2/1 7/157/1 3/3/1
f 3/3/1 27/139/1 19/1/1
f 33/6/2 34/161/2 35/162/2
f 35/162/2 36/163/2 37/164/2
f 37/164/2 38/165/2 39/166/2
f 39/166/2 40/167/2 41/168/2
f 41/168/2 42/169/2 43/170/2
f 43/170/2 44/171/2 45/172/2
f 45/172/2 46/173/2 47/174/2
f 47/174/2 48/175/2 49/4/2
f 49/4/2 50/176/2 51/177/2
f 51/177/2 52/178/2 53/179/2
f 53/179/2 54/180/2 55/181/2
f 55/181/2 56/182/2 57/5/2
f 57/5/2 58/183/2 59/184/2
f 59/184/2 60/185/2 61/186/2
f 61/186/2 62/187/2 63/188/2
f 63/188/2 64/189/2 33/6/2
f 33/6/2 35/162/2 37/164/2
f 37/164/2 39/166/2 41/168/2
f 41/168/2 43/170/2 45/172/2
f 45/172/2 47/174/2 49/4/2
f 49/4/2 51/177/2 53/179/2
f 53/179/2 55/181/2 57/5/2
f 57/5/2 59/184/2 61/186/2
f 61/186/2 63/188/2 33/6/2
f 33/6/2 37/164/2 41/168/2
f 41/168/2 45/172/2 49/4/2
f 49/4/2 53/179/2 57/5/2
f 57/5/2 61/186/2 33/6/2
f 33/6/2 41/168/2 49/4/2
f 8/7/3 40/14/3 39/8/3
f 21/10/4 22/16/4 54/11/4
f 9/13/5 41/18/5 40/14/5
f 23/15/6 55/20/6 54/11/6
f 10/17/7 42/22/7 41/18/7
f 24/19/8 56/24/8 55/20/8
f 11/21/9 43/26/9 42/22/9
f 25/23/10 57/28/10 56/24/10
f 12/25/11 44/30/11 43/26/11
f 26/27/12 58/32/12 57/28/12
f 12/25/13 13/190/13 45/29/13
f 27/31/14 59/37/14 58/32/14
f 13/33/15 14/39/15 46/34/15
f 28/36/16 60/191/16 59/37/16
f 15/38/17 47/47/17 46/34/17
f 2/40/18 34/49/18 33/41/18
f 29/43/19 61/51/19 60/44/19
f 15/38/20 16/53/20 48/46/20
f 3/48/21 35/55/21 34/49/21
f 30/50/22 62/57/22 61/51/22
f 17/52/23 49/59/23 48/46/23
f 4/54/24 36/61/24 35/55/24
f 31/56/25 63/63/25 62/57/25
f 18/58/26 50/65/26 49/59/26
f 5/60/27 37/192/27 36/61/27
f 32/62/28 64/69/28 63/63/28
f 18/58/29 19/71/29 51/64/29
f 6/66/30 38/72/30 37/67/30
f 1/42/31 33/41/31 64/69/31
f 20/70/32 52/74/32 51/64/32
f 7/9/33 39/8/33 38/72/33
f 20/70/34 21/193/34 53/73/34
usemtl Material.001
f 81/113/1 84/114/1 83/115/1
f 88/116/2 85/117/2 87/118/2
f 81/113/1 82/119/1 84/114/1
f 88/116/2 86/120/2 85/117/2
f 84/121/35 87/122/35 83/123/35
f 86/124/43 84/125/43 82/126/43
f 85/127/36 82/128/36 81/129/36
f 87/130/44 81/126/44 83/131/44
f 84/121/35 88/194/35 87/122/35
f 86/124/43 88/195/43 84/125/43
f 85/127/36 86/196/36 82/128/36
f 87/130/44 85/124/44 81/126/44
