# Blender 3.6.2
# www.blender.org
mtllib Brazo2.mtl
o Brazo2
v -0.173405 -0.322442 -3.274026
v -0.173405 -0.487798 -0.896862
v -0.173405 1.191048 -3.225034
v -0.173405 1.506316 -0.403780
v 0.173405 -0.322442 -3.274026
v 0.173405 -0.487798 -0.896862
v 0.173405 1.191048 -3.225034
v 0.173405 1.506316 -0.403780
v -0.104656 0.049060 -3.496475
v -0.104656 0.831449 -3.477625
v 0.104656 0.049060 -3.496475
v 0.104656 0.831449 -3.477625
v -0.173405 1.096833 0.274125
v -0.173405 1.431227 0.042487
v 0.173405 1.096833 0.274125
v 0.173405 1.431227 0.042487
v -0.074070 0.184220 -0.746168
v -0.074070 0.326251 -0.695891
v -0.074070 0.455744 -0.618871
v -0.074070 0.567723 -0.518069
v -0.074070 0.657884 -0.397357
v -0.074070 0.722764 -0.261375
v -0.074070 0.759868 -0.115349
v -0.074070 0.767770 0.035111
v -0.074070 0.746168 0.184221
v -0.074070 0.695891 0.326251
v -0.074070 0.618871 0.455744
v -0.074070 0.518069 0.567723
v -0.074070 0.397357 0.657884
v -0.074070 0.261375 0.722764
v -0.074070 0.115348 0.759868
v -0.074070 -0.035111 0.767771
v -0.074070 -0.184221 0.746168
v -0.074070 -0.326251 0.695891
v -0.074070 -0.455744 0.618872
v -0.074070 -0.567723 0.518069
v -0.074070 -0.657884 0.397357
v -0.074070 -0.722764 0.261375
v -0.074070 -0.759868 0.115349
v -0.074070 -0.767771 -0.035111
v -0.074070 -0.746169 -0.184221
v -0.074070 -0.695891 -0.326251
v -0.074070 -0.618872 -0.455744
v -0.074070 -0.518069 -0.567723
v -0.074070 -0.397357 -0.657884
v -0.074070 -0.261375 -0.722764
v -0.074070 -0.115349 -0.759868
v -0.074070 0.035111 -0.767770
v 0.074070 0.184220 -0.746168
v 0.074070 0.326251 -0.695891
v 0.074070 0.455744 -0.618871
v 0.074070 0.567723 -0.518069
v 0.074070 0.657884 -0.397357
v 0.074070 0.722764 -0.261375
v 0.074070 0.759868 -0.115349
v 0.074070 0.767770 0.035111
v 0.074070 0.746168 0.184221
v 0.074070 0.695891 0.326251
v 0.074070 0.618871 0.455744
v 0.074070 0.518069 0.567723
v 0.074070 0.397357 0.657884
v 0.074070 0.261375 0.722764
v 0.074070 0.115348 0.759868
v 0.074070 -0.035111 0.767771
v 0.074070 -0.184221 0.746168
v 0.074070 -0.326251 0.695891
v 0.074070 -0.455744 0.618872
v 0.074070 -0.567723 0.518069
v 0.074070 -0.657884 0.397357
v 0.074070 -0.722764 0.261375
v 0.074070 -0.759868 0.115349
v 0.074070 -0.767771 -0.035111
v 0.074070 -0.746169 -0.184221
v 0.074070 -0.695891 -0.326251
v 0.074070 -0.618872 -0.455744
v 0.074070 -0.518069 -0.567723
v 0.074070 -0.397357 -0.657884
v 0.074070 -0.261375 -0.722764
v 0.074070 -0.115349 -0.759868
v 0.074070 0.035111 -0.767770
vn -1.0000 -0.0000 -0.0000
vn -0.0000 0.9938 -0.1111
vn 1.0000 -0.0000 -0.0000
vn -0.0000 -0.9976 -0.0694
vn -0.0000 -0.5137 -0.8580
vn -0.0000 0.0241 -0.9997
vn -0.0000 0.5748 -0.8183
vn -0.9596 0.0091 -0.2813
vn 0.9625 0.0065 -0.2713
vn -0.0000 0.5694 0.8220
vn -0.0000 -0.5943 0.8042
vn -0.0000 0.9861 0.1659
vn -0.9625 0.0065 -0.2713
vn 0.9596 0.0091 -0.2813
vn -0.0000 0.9986 -0.0525
vn -0.0000 -0.9025 0.4306
vn -0.0000 0.9897 0.1434
vn -0.0000 -0.9692 0.2463
vn -0.0000 0.9427 0.3337
vn -0.0000 -0.9986 0.0525
vn -0.0000 0.8595 0.5112
vn -0.0000 -0.9897 -0.1434
vn -0.0000 0.7432 0.6690
vn -0.0000 -0.9427 -0.3337
vn -0.0000 0.5984 0.8012
vn -0.0000 -0.8595 -0.5112
vn -0.0000 0.4306 0.9025
vn -0.0000 -0.7432 -0.6690
vn -0.0000 0.2463 0.9692
vn -0.0000 0.3337 -0.9427
vn -0.0000 -0.5984 -0.8012
vn -0.0000 0.0525 0.9986
vn -0.0000 0.5112 -0.8595
vn -0.0000 -0.4306 -0.9025
vn -0.0000 -0.1434 0.9897
vn -0.0000 0.6690 -0.7432
vn -0.0000 -0.2463 -0.9692
vn -0.0000 -0.3337 0.9427
vn -0.0000 0.8012 -0.5984
vn -0.0000 -0.0525 -0.9986
vn -0.0000 -0.5112 0.8595
vn -0.0000 0.9025 -0.4306
vn -0.0000 0.1434 -0.9897
vn -0.0000 -0.6690 0.7432
vn -0.0000 0.9692 -0.2463
vn -0.0000 -0.8012 0.5984
vt 0.351799 0.246778
vt 0.697400 0.642906
vt 0.428618 0.681554
vt 0.697400 0.079655
vt 0.760328 0.601179
vt 0.697400 0.601179
vt 0.006198 0.642906
vt 0.351799 0.246778
vt 0.274980 0.681554
vt 0.760328 -0.000000
vt 0.823256 0.436180
vt 0.760328 0.436180
vt 0.760328 0.875098
vt 0.709874 0.801697
vt 0.747853 0.801697
vt 0.006198 0.116896
vt 0.092685 0.000000
vt 0.747853 0.659926
vt 0.709874 0.659926
vt 0.760328 0.601178
vt 0.697400 0.601178
vt 0.499400 0.716280
vt 0.204198 0.716280
vt 0.065124 0.697494
vt 0.760328 0.505212
vt 0.697400 0.116896
vt 0.610913 -0.000000
vt 0.675128 0.036137
vt 0.760328 0.744421
vt 0.823256 0.505212
vt 0.823256 0.744421
vt 0.760328 -0.000000
vt 0.760328 0.079655
vt 0.823256 -0.000000
vt 0.697400 0.875098
vt 0.028470 0.036137
vt 0.638474 0.697494
vt 0.697400 -0.000000
vt 0.078336 0.732367
vt 0.264718 0.791084
vt 0.208179 0.983913
vt 0.430875 0.716280
vt 0.554435 0.871961
vt 0.403877 1.000000
vt 0.823256 0.272996
vt 0.850136 0.300607
vt 0.823256 0.300607
vt 0.850136 0.665125
vt 0.823256 0.639946
vt 0.850136 0.639946
vt 0.823256 0.246302
vt 0.850136 0.272996
vt 0.850136 0.692064
vt 0.823256 0.665125
vt 0.823256 0.221551
vt 0.850136 0.246302
vt 0.850136 0.719728
vt 0.823256 0.692064
vt 0.823256 0.199692
vt 0.850136 0.221551
vt 0.850136 0.747053
vt 0.823256 0.719728
vt 0.850136 0.421762
vt 0.823256 0.399319
vt 0.850136 0.399319
vt 0.850136 0.772990
vt 0.823256 0.747053
vt 0.850136 0.446935
vt 0.823256 0.421762
vt 0.850136 0.796542
vt 0.823256 0.772990
vt 0.850136 0.473871
vt 0.823256 0.446935
vt 0.823256 0.178419
vt 0.850136 0.199692
vt 0.823256 0.199692
vt 0.850136 0.501534
vt 0.823256 0.473871
vt 0.823256 0.021522
vt 0.850136 0.046026
vt 0.823256 0.046026
vt 0.823256 0.154099
vt 0.850136 0.178419
vt 0.823256 0.528861
vt 0.823256 0.501534
vt 0.823256 0.000000
vt 0.850136 0.021522
vt 0.823256 0.127667
vt 0.850136 0.154099
vt 0.850136 0.554803
vt 0.850136 0.528861
vt 0.823256 0.378396
vt 0.850136 0.399319
vt 0.823256 0.399319
vt 0.823256 0.100138
vt 0.850136 0.127667
vt 0.850136 0.578363
vt 0.823256 0.554803
vt 0.823256 0.354339
vt 0.850136 0.378396
vt 0.823256 0.072572
vt 0.850136 0.100138
vt 0.823256 0.598634
vt 0.823256 0.578363
vt 0.823256 0.328073
vt 0.850136 0.354339
vt 0.850136 0.072572
vt 0.850136 0.617495
vt 0.850136 0.598634
vt 0.850136 0.328073
vt 0.823256 0.617495
vt 0.183236 0.994578
vt 0.156757 1.000000
vt 0.129758 0.999971
vt 0.103279 0.994491
vt 0.078336 0.983771
vt 0.055887 0.968223
vt 0.036797 0.948445
vt 0.021797 0.925196
vt 0.011465 0.899371
vt 0.006198 0.871961
vt 0.006198 0.844020
vt 0.011465 0.816621
vt 0.021797 0.790819
vt 0.036797 0.767603
vt 0.055887 0.747866
vt 0.103279 0.721702
vt 0.129758 0.716280
vt 0.156757 0.716309
vt 0.183236 0.721789
vt 0.208180 0.732509
vt 0.230628 0.748057
vt 0.249718 0.767835
vt 0.275050 0.816909
vt 0.280317 0.844319
vt 0.280317 0.872260
vt 0.275050 0.899659
vt 0.264718 0.925461
vt 0.249718 0.948677
vt 0.230628 0.968414
vt 0.377397 0.994578
vt 0.352454 0.983913
vt 0.330006 0.968414
vt 0.310915 0.948677
vt 0.295916 0.925461
vt 0.285584 0.899659
vt 0.280317 0.872260
vt 0.280317 0.844319
vt 0.285584 0.816909
vt 0.295916 0.791084
vt 0.310915 0.767835
vt 0.330006 0.748057
vt 0.352454 0.732509
vt 0.377397 0.721789
vt 0.403877 0.716309
vt 0.457355 0.721702
vt 0.482298 0.732367
vt 0.504746 0.747866
vt 0.523837 0.767603
vt 0.538836 0.790819
vt 0.549168 0.816621
vt 0.554435 0.844020
vt 0.549168 0.899371
vt 0.538836 0.925196
vt 0.523837 0.948445
vt 0.504746 0.968223
vt 0.482298 0.983771
vt 0.457355 0.994491
vt 0.430875 0.999971
vt 0.850136 0.199692
vt 0.823256 0.796542
vt 0.850136 0.000000
s 0
usemtl RustRed
f 2/1/1 3/2/1 1/3/1
f 4/4/2 7/5/2 3/6/2
f 7/7/3 6/8/3 5/9/3
f 6/10/4 1/11/4 5/12/4
f 5/13/5 9/14/5 11/15/5
f 8/16/3 15/17/3 6/8/3
f 12/18/6 9/14/6 10/19/6
f 7/20/7 10/19/7 3/21/7
f 3/2/8 9/22/8 1/3/8
f 7/7/9 11/23/9 12/24/9
f 14/11/10 15/25/10 16/12/10
f 4/26/1 13/27/1 14/28/1
f 6/29/11 13/30/11 2/31/11
f 4/4/12 16/32/12 8/33/12
f 2/1/1 4/26/1 3/2/1
f 4/4/2 8/33/2 7/5/2
f 7/7/3 8/16/3 6/8/3
f 6/10/4 2/34/4 1/11/4
f 5/13/5 1/35/5 9/14/5
f 8/16/3 16/36/3 15/17/3
f 12/18/6 11/15/6 9/14/6
f 7/20/7 12/18/7 10/19/7
f 3/2/13 10/37/13 9/22/13
f 7/7/14 5/9/14 11/23/14
f 14/11/10 13/30/10 15/25/10
f 4/26/1 2/1/1 13/27/1
f 6/29/11 15/25/11 13/30/11
f 4/4/12 14/38/12 16/32/12
f 35/39/1 27/40/1 19/41/1
f 65/42/3 73/43/3 49/44/3
f 24/45/15 55/46/15 23/47/15
f 38/48/16 69/49/16 37/50/16
f 25/51/17 56/52/17 24/45/17
f 39/53/18 70/54/18 38/48/18
f 26/55/19 57/56/19 25/51/19
f 40/57/20 71/58/20 39/53/20
f 27/59/21 58/60/21 26/55/21
f 41/61/22 72/62/22 40/57/22
f 28/63/23 59/64/23 27/65/23
f 42/66/24 73/67/24 41/61/24
f 29/68/25 60/69/25 28/63/25
f 43/70/26 74/71/26 42/66/26
f 30/72/27 61/73/27 29/68/27
f 44/74/28 75/75/28 43/76/28
f 31/77/29 62/78/29 30/72/29
f 18/79/30 49/80/30 17/81/30
f 45/82/31 76/83/31 44/74/31
f 31/77/32 64/84/32 63/85/32
f 19/86/33 50/87/33 18/79/33
f 46/88/34 77/89/34 45/82/34
f 33/90/35 64/84/35 32/91/35
f 20/92/36 51/93/36 19/94/36
f 47/95/37 78/96/37 46/88/37
f 34/97/38 65/98/38 33/90/38
f 21/99/39 52/100/39 20/92/39
f 48/101/40 79/102/40 47/95/40
f 34/97/41 67/103/41 66/104/41
f 22/105/42 53/106/42 21/99/42
f 17/81/43 80/107/43 48/101/43
f 36/108/44 67/103/44 35/109/44
f 23/47/45 54/110/45 22/105/45
f 37/50/46 68/111/46 36/108/46
f 19/41/1 18/112/1 17/113/1
f 17/113/1 48/114/1 47/115/1
f 47/115/1 46/116/1 45/117/1
f 45/117/1 44/118/1 43/119/1
f 43/119/1 42/120/1 41/121/1
f 41/121/1 40/122/1 39/123/1
f 39/123/1 38/124/1 37/125/1
f 37/125/1 36/126/1 35/39/1
f 35/39/1 34/127/1 33/128/1
f 33/128/1 32/129/1 31/130/1
f 31/130/1 30/131/1 29/132/1
f 29/132/1 28/133/1 27/40/1
f 27/40/1 26/134/1 25/135/1
f 25/135/1 24/136/1 23/137/1
f 23/137/1 22/138/1 21/139/1
f 21/139/1 20/140/1 19/41/1
f 19/41/1 17/113/1 47/115/1
f 47/115/1 45/117/1 43/119/1
f 43/119/1 41/121/1 39/123/1
f 39/123/1 37/125/1 35/39/1
f 35/39/1 33/128/1 31/130/1
f 31/130/1 29/132/1 27/40/1
f 27/40/1 25/135/1 23/137/1
f 23/137/1 21/139/1 19/41/1
f 19/41/1 47/115/1 43/119/1
f 43/119/1 39/123/1 35/39/1
f 35/39/1 31/130/1 27/40/1
f 27/40/1 23/137/1 19/41/1
f 19/41/1 43/119/1 35/39/1
f 49/44/3 50/141/3 51/142/3
f 51/142/3 52/143/3 53/144/3
f 53/144/3 54/145/3 55/146/3
f 55/146/3 56/147/3 57/148/3
f 57/148/3 58/149/3 59/150/3
f 59/150/3 60/151/3 61/152/3
f 61/152/3 62/153/3 63/154/3
f 63/154/3 64/155/3 65/42/3
f 65/42/3 66/156/3 67/157/3
f 67/157/3 68/158/3 69/159/3
f 69/159/3 70/160/3 71/161/3
f 71/161/3 72/162/3 73/43/3
f 73/43/3 74/163/3 75/164/3
f 75/164/3 76/165/3 77/166/3
f 77/166/3 78/167/3 79/168/3
f 79/168/3 80/169/3 49/44/3
f 49/44/3 51/142/3 53/144/3
f 53/144/3 55/146/3 57/148/3
f 57/148/3 59/150/3 61/152/3
f 61/152/3 63/154/3 65/42/3
f 65/42/3 67/157/3 69/159/3
f 69/159/3 71/161/3 73/43/3
f 73/43/3 75/164/3 77/166/3
f 77/166/3 79/168/3 49/44/3
f 49/44/3 53/144/3 57/148/3
f 57/148/3 61/152/3 65/42/3
f 65/42/3 69/159/3 73/43/3
f 73/43/3 77/166/3 49/44/3
f 49/44/3 57/148/3 65/42/3
f 24/45/15 56/52/15 55/46/15
f 38/48/16 70/54/16 69/49/16
f 25/51/17 57/56/17 56/52/17
f 39/53/18 71/58/18 70/54/18
f 26/55/19 58/60/19 57/56/19
f 40/57/20 72/62/20 71/58/20
f 27/59/21 59/170/21 58/60/21
f 41/61/22 73/67/22 72/62/22
f 28/63/23 60/69/23 59/64/23
f 42/66/24 74/71/24 73/67/24
f 29/68/25 61/73/25 60/69/25
f 43/70/26 75/171/26 74/71/26
f 30/72/27 62/78/27 61/73/27
f 44/74/28 76/83/28 75/75/28
f 31/77/29 63/85/29 62/78/29
f 18/79/30 50/87/30 49/80/30
f 45/82/31 77/89/31 76/83/31
f 31/77/32 32/91/32 64/84/32
f 19/86/33 51/172/33 50/87/33
f 46/88/34 78/96/34 77/89/34
f 33/90/35 65/98/35 64/84/35
f 20/92/36 52/100/36 51/93/36
f 47/95/37 79/102/37 78/96/37
f 34/97/38 66/104/38 65/98/38
f 21/99/39 53/106/39 52/100/39
f 48/101/40 80/107/40 79/102/40
f 34/97/41 35/109/41 67/103/41
f 22/105/42 54/110/42 53/106/42
f 17/81/43 49/80/43 80/107/43
f 36/108/44 68/111/44 67/103/44
f 23/47/45 55/46/45 54/110/45
f 37/50/46 69/49/46 68/111/46
